<svg width="520" height="200" xmlns="http://www.w3.org/2000/svg">
 <!-- Created with Method Draw - http://github.com/duopixel/Method-Draw/ -->

 <g>
  <title>background</title>
  <rect fill="none" id="canvas_background" height="202" width="522" y="-1" x="-1"/>
  <g display="none" overflow="visible" y="0" x="0" height="100%" width="100%" id="canvasGrid">
   <rect fill="url(#gridpattern)" stroke-width="0" y="0" x="0" height="100%" width="100%"/>
  </g>
 </g>
 <g>
  <title>Layer 1</title>
  <g stroke="null" id="svg_6">
   <g id="svg_4" fill="#000000" transform="matrix(0.011410277815245378,0,0,-0.012960070068545958,-2757.4417765867015,-2060.115523596053) ">
    <path stroke="null" fill="#56aaff" id="svg_5" d="m250376.477112,-160381.682465c-187,-267 -418,-460 -732,-613c-686,-335 -1572,-342 -2356,-20c-274,113 -491,238 -791,457c-101,73 -187,133 -190,133c-4,0 -432,-668 -953,-1484l-946,-1485l0,-82l0,-82l138,-136c153,-150 231,-243 326,-385c322,-482 407,-1047 265,-1776c-47,-245 -134,-558 -282,-1015c-36,-110 -81,-249 -101,-310c-151,-472 -217,-816 -202,-1044c19,-275 118,-796 221,-1161c91,-321 180,-556 310,-818c413,-830 1021,-1300 1938,-1497c266,-57 540,-93 1122,-145c369,-33 525,-51 710,-81c785,-128 1226,-411 1557,-1000l83,-148l145,0l145,-1l34,83c139,336 289,523 546,685c132,82 357,172 570,227c250,64 433,95 1065,180c569,76 794,115 1090,187c1186,288 1903,945 2290,2097c96,286 166,598 226,999c21,139 27,216 27,357c1,330 -52,619 -228,1228c-41,141 -109,373 -150,515c-183,634 -243,951 -252,1341c-8,317 17,503 96,741c95,282 246,517 488,756l123,120l0,83l0,82l-902,1402c-496,771 -917,1425 -936,1454l-34,51l-132,-146c-170,-189 -256,-267 -385,-354c-367,-245 -874,-378 -1441,-378c-884,1 -1712,329 -2015,800c-24,36 -64,116 -90,178l-48,112l-137,0l-136,0l-76,-107z"/>
   </g>
  </g>
  <text stroke="#000" transform="matrix(1.332645058631897,0,0,1.1098577976226807,-68.85752713680267,-2.8271217606961727) " font-weight="bold" xml:space="preserve" text-anchor="start" font-family="Helvetica, Arial, sans-serif" font-size="50" id="svg_7" y="81.307114" x="198.745739" stroke-width="0" fill="#56aaff">OPTIPOL</text>
  <text stroke="#000" transform="matrix(0.6983814239501953,0,0,1,60.92695236206055,0) " xml:space="preserve" text-anchor="start" font-family="Helvetica, Arial, sans-serif" font-size="30" id="svg_8" y="128" x="202" stroke-width="0" fill="#ffffff">TO PREDICT AND PROTECT</text>
  <g stroke="null" id="svg_11">
   <g id="svg_10" fill="#000000" transform="matrix(0.010109465406666516,0,0,-0.011710068807380748,-2434.1937255867388,-1852.5656983752085) ">
    <path stroke="null" fill="#ffffff" id="svg_9" d="m250740.645575,-160534.863673c-187,-267 -418,-460 -732,-613c-686,-335 -1572,-342 -2356,-20c-274,113 -491,238 -791,457c-101,73 -187,133 -190,133c-4,0 -432,-668 -953,-1484l-946,-1485l0,-82l0,-82l138,-136c153,-150 231,-243 326,-385c322,-482 407,-1047 265,-1776c-47,-245 -134,-558 -282,-1015c-36,-110 -81,-249 -101,-310c-151,-472 -217,-816 -202,-1044c19,-275 118,-796 221,-1161c91,-321 180,-556 310,-818c413,-830 1021,-1300 1938,-1497c266,-57 540,-93 1122,-145c369,-33 525,-51 710,-81c785,-128 1226,-411 1557,-1000l83,-148l145,0l145,-1l34,83c139,336 289,523 546,685c132,82 357,172 570,227c250,64 433,95 1065,180c569,76 794,115 1090,187c1186,288 1903,945 2290,2097c96,286 166,598 226,999c21,139 27,216 27,357c1,330 -52,619 -228,1228c-41,141 -109,373 -150,515c-183,634 -243,951 -252,1341c-8,317 17,503 96,741c95,282 246,517 488,756l123,120l0,83l0,82l-902,1402c-496,771 -917,1425 -936,1454l-34,51l-132,-146c-170,-189 -256,-267 -385,-354c-367,-245 -874,-378 -1441,-378c-884,1 -1712,329 -2015,800c-24,36 -64,116 -90,178l-48,112l-137,0l-136,0l-76,-107z"/>
   </g>
  </g>
  <g stroke="null" id="svg_918">
   <g stroke="null" transform="matrix(0.058855501080024686,0,0,0.06416771546018785,-8896.54721475472,-3697.751854206552) " id="svg_191">
    <g stroke="null" id="svg_192">
     <path stroke="#000000" id="svg_193" d="m153054.045696,58368.793355c-0.137,0.049 -0.284,0.098 -0.421,0.147c0.108,-0.029 0.255,-0.088 0.421,-0.147z" stroke-miterlimit="10" stroke-width="3" fill="none"/>
     <path stroke="#000000" id="svg_194" d="m153075.951696,59920.882355c9.084,0.714 18.549,0.647 27.691,0l-27.691,0z" stroke-miterlimit="10" stroke-width="3" fill="none"/>
     <path stroke="#000000" id="svg_195" d="m153569.068696,58761.081355l15.756,119.828c5.883,-35.084 4.17,-83.643 -15.756,-119.828z" stroke-miterlimit="10" stroke-width="3" fill="none"/>
     <path stroke="#000000" id="svg_196" d="m153575.799696,58921.504355c1.038,-6.414 6.319,-24.46 9.025,-40.595l-15.756,-119.828c-12.505,-22.708 -26.958,-34.3 -47.685,-51.449l-65.681,115.104l120.097,96.768z" stroke-miterlimit="10" stroke-width="3" fill="none"/>
     <path stroke="#000000" id="svg_197" d="m153483.187696,59692.127355c4.74,-3.181 14.773,-4.693 20.954,-6.86c45.644,-16.044 57.784,-46.506 75.604,-73.057c13.564,-20.192 22.333,-38.896 24.987,-60.393l-75.561,-15.908l-45.984,156.218z" stroke-miterlimit="10" stroke-width="3" fill="none"/>
     <path stroke="#000000" id="svg_198" d="m153604.732696,59551.816355c4.69,-37.994 -13.326,-81.562 -12.762,-89.1c0.255,-3.481 1.513,-6.99 2.92,-10.533l-65.72,83.725l75.562,15.908z" stroke-miterlimit="10" stroke-width="3" fill="none"/>
     <path stroke="#000000" id="svg_199" d="m153646.328696,59187.983355c6.825,-5.135 12.07,-10.684 15.613,-17.248l-37.142,-125.233c-2.922,-1.755 -5.862,-3.476 -8.829,-5.149c0.472,-5.864 0.888,-12.275 1.257,-20.384l-22.671,-76.441c-1.566,-1.682 -3.262,-3.321 -5.114,-4.939l-125.903,215.285l182.789,34.109z" stroke-miterlimit="10" stroke-width="3" fill="none"/>
     <path stroke="#000000" id="svg_200" d="m153649.452696,59081.151355c-6.426,-13.479 -15.125,-23.627 -24.333,-35.461c-0.106,-0.064 -0.214,-0.126 -0.32,-0.19l37.142,125.233c13.117,-24.302 -0.906,-65.288 -12.489,-89.582z" stroke-miterlimit="10" stroke-width="3" fill="none"/>
     <path stroke="#000000" id="svg_201" d="m153608.300696,58965.503355c-3.799,-8.757 -7.874,-15.671 -13.744,-21.975l22.671,76.441c1.137,-24.969 0.922,-31.75 -8.927,-54.466z" stroke-miterlimit="10" stroke-width="3" fill="none"/>
     <path stroke="#000000" id="svg_202" d="m153463.539696,59153.874355l125.903,-215.285c-0.569,-0.497 -1.151,-0.993 -1.751,-1.487l-143.744,91.387l19.592,125.385z" stroke-miterlimit="10" stroke-width="3" fill="none"/>
     <path stroke="#000000" id="svg_203" d="m153656.675696,59338.849355c26.103,-47.646 9.002,-99.819 -25.326,-141.383c5.626,-3.094 10.621,-6.205 14.979,-9.484l-182.789,-34.109l193.136,184.976z" stroke-miterlimit="10" stroke-width="3" fill="none"/>
     <path stroke="#000000" id="svg_204" d="m153439.454696,58552.216355l43.682,37.595c-7.266,-21.217 -20.989,-35.209 -43.682,-37.595z" stroke-miterlimit="10" stroke-width="3" fill="none"/>
     <path stroke="#000000" id="svg_205" d="m153529.171696,59535.909355l65.72,-83.725c1.733,-4.364 3.69,-8.779 4.28,-13.261c1.312,-10.021 -5.897,-25.214 -2.851,-33.698c3.394,-9.506 18.282,-17.192 38.687,-38.641l-214.569,74.306l108.733,95.019z" stroke-miterlimit="10" stroke-width="3" fill="none"/>
     <path stroke="#000000" id="svg_206" d="m153420.438696,59440.890355l214.569,-74.306c9.418,-9.9 15.935,-17.269 21.668,-27.735l-193.136,-184.975l-43.101,287.016z" stroke-miterlimit="10" stroke-width="3" fill="none"/>
     <path stroke="#000000" id="svg_207" d="m153443.947696,59028.488355l143.744,-91.387c-10.038,-8.267 -13.173,-7.678 -11.892,-15.597l-120.097,-96.769l-11.755,203.753z" stroke-miterlimit="10" stroke-width="3" fill="none"/>
     <path stroke="#000000" id="svg_208" d="m153355.945696,58407.720355l57.207,101.701c5.227,-30 -18.447,-78.24 -57.207,-101.701z" stroke-miterlimit="10" stroke-width="3" fill="none"/>
     <path stroke="#000000" id="svg_209" d="m153446.954696,59787.380355l-31.303,24.958c14.443,-6.767 22.462,-11.509 31.303,-24.958z" stroke-miterlimit="10" stroke-width="3" fill="none"/>
     <path stroke="#000000" id="svg_210" d="m153455.702696,58824.736355l65.681,-115.104c-9.359,-7.743 -17.547,-13.614 -23.395,-29.821l-150.039,75.375l107.753,69.55z" stroke-miterlimit="10" stroke-width="3" fill="none"/>
     <path stroke="#000000" id="svg_211" d="m153497.988696,58679.811355c-9.41,-26.077 -4.014,-58.353 -14.852,-90l-43.682,-37.595c-1.804,-0.19 -3.752,-0.26 -5.769,-0.293l-85.736,203.263l150.039,-75.375z" stroke-miterlimit="10" stroke-width="3" fill="none"/>
     <path stroke="#000000" id="svg_212" d="m153341.393696,59833.009355c53.195,0.186 81.227,-26.228 105.561,-45.629c1.474,-2.242 2.832,-4.548 4.105,-6.902l-96.254,23.834l-13.412,28.697z" stroke-miterlimit="10" stroke-width="3" fill="none"/>
     <polygon stroke="#000000" id="svg_213" points="153420.43111038208,59440.8902721405 153463.54048538208,59153.8746471405 153255.86861038208,59254.7691783905 " stroke-miterlimit="10" stroke-width="3" fill="none"/>
     <path stroke="#000000" id="svg_214" d="m153225.502696,59542.766355l228.362,232.217c4.454,-9.26 8.03,-19.01 12.495,-28.277c7.411,-15.383 3.748,-45.802 16.828,-54.579l45.984,-156.218l-303.669,6.857z" stroke-miterlimit="10" stroke-width="3" fill="none"/>
     <polygon stroke="#000000" id="svg_215" points="153529.16548538208,59535.9098033905 153420.43111038208,59440.8902721405 153225.49361038208,59542.7652721405 " stroke-miterlimit="10" stroke-width="3" fill="none"/>
     <path stroke="#000000" id="svg_216" d="m153354.806696,59804.313355l96.254,-23.834c0.978,-1.808 1.912,-3.641 2.805,-5.496l-228.362,-232.217l129.303,261.547z" stroke-miterlimit="10" stroke-width="3" fill="none"/>
     <polygon stroke="#000000" id="svg_217" points="153443.94673538208,59028.4879283905 153455.69673538208,58824.7340221405 153235.29048538208,58794.3668346405 " stroke-miterlimit="10" stroke-width="3" fill="none"/>
     <polygon stroke="#000000" id="svg_218" points="153455.69673538208,58824.7340221405 153347.94673538208,58755.1871471405 153235.29048538208,58794.3668346405 " stroke-miterlimit="10" stroke-width="3" fill="none"/>
     <polygon stroke="#000000" id="svg_219" points="153463.54048538208,59153.8746471405 153443.94673538208,59028.4879283905 153256.85298538208,59116.6480846405 " stroke-miterlimit="10" stroke-width="3" fill="none"/>
     <polygon stroke="#000000" id="svg_220" points="153255.86861038208,59254.7691783905 153463.54048538208,59153.8746471405 153256.85298538208,59116.6480846405 " stroke-miterlimit="10" stroke-width="3" fill="none"/>
     <polygon stroke="#000000" id="svg_221" points="153256.85298538208,59116.6480846405 153443.94673538208,59028.4879283905 153235.29048538208,58794.3668346405 " stroke-miterlimit="10" stroke-width="3" fill="none"/>
     <polygon stroke="#000000" id="svg_222" points="153225.49361038208,59542.7652721405 153188.27486038208,59756.3121471405 153354.80611038208,59804.3121471405 " stroke-miterlimit="10" stroke-width="3" fill="none"/>
     <polygon stroke="#000000" id="svg_223" points="153225.49361038208,59542.7652721405 153420.43111038208,59440.8902721405 153232.35298538208,59478.1129283905 " stroke-miterlimit="10" stroke-width="3" fill="none"/>
     <path stroke="#000000" id="svg_224" d="m153347.949696,58755.186355l85.736,-203.263c-1.603,-0.026 -3.248,-0.033 -4.897,-0.06l-246.388,130.834l165.549,72.489z" stroke-miterlimit="10" stroke-width="3" fill="none"/>
     <polygon stroke="#000000" id="svg_225" points="153232.35298538208,59478.1129283905 153420.43111038208,59440.8902721405 153255.86861038208,59254.7691783905 " stroke-miterlimit="10" stroke-width="3" fill="none"/>
     <path stroke="#000000" id="svg_226" d="m153412.902696,58548.772355c-11.905,-7.487 -1.927,-26.857 0.25,-39.351l-57.207,-101.701c-0.103,-0.062 -0.203,-0.131 -0.307,-0.193l-234.952,144.887l292.216,-3.642z" stroke-miterlimit="10" stroke-width="3" fill="none"/>
     <path stroke="#000000" id="svg_227" d="m153182.400696,58682.697355l246.388,-130.834c-5.85,-0.095 -11.729,-0.477 -15.887,-3.091l-292.215,3.641l61.714,130.284z" stroke-miterlimit="10" stroke-width="3" fill="none"/>
     <polygon stroke="#000000" id="svg_228" points="153255.86861038208,59254.7691783905 153196.11861038208,59458.5230846405 153232.35298538208,59478.1129283905 " stroke-miterlimit="10" stroke-width="3" fill="none"/>
     <polygon stroke="#000000" id="svg_229" points="153235.29048538208,58794.3668346405 153143.21236038208,58805.1441783905 153256.85298538208,59116.6480846405 " stroke-miterlimit="10" stroke-width="3" fill="none"/>
     <path stroke="#000000" id="svg_230" d="m153355.639696,58407.527355c-0.128,-0.077 -0.258,-0.146 -0.386,-0.223l-57.97,-14.337c-13.22,0.602 -26.949,3.535 -40.974,8.906c-9.345,3.585 -25.126,17.632 -35.049,15.82c-9.179,-1.675 -18.142,-16.565 -26.576,-21.423c-8.347,-4.81 -17.488,-9.252 -26.969,-12.809l-47.028,168.952l234.952,-144.886z" stroke-miterlimit="10" stroke-width="3" fill="none"/>
     <path stroke="#000000" id="svg_231" d="m153297.282696,58392.968355l57.97,14.337c-17.476,-10.399 -37.085,-15.289 -57.97,-14.337z" stroke-miterlimit="10" stroke-width="3" fill="none"/>
     <polygon stroke="#000000" id="svg_232" points="153347.94673538208,58755.1871471405 153182.39986038208,58682.6949596405 153235.29048538208,58794.3668346405 " stroke-miterlimit="10" stroke-width="3" fill="none"/>
     <path stroke="#000000" id="svg_233" d="m153188.278696,59756.313355l65.501,72.722c17.575,-17.859 41.993,3.814 87.614,3.974l13.413,-28.697l-166.528,-47.999z" stroke-miterlimit="10" stroke-width="3" fill="none"/>
     <polygon stroke="#000000" id="svg_234" points="153143.21236038208,58805.1441783905 153009.99361038208,58874.6949596405 153256.85298538208,59116.6480846405 " stroke-miterlimit="10" stroke-width="3" fill="none"/>
     <polygon stroke="#000000" id="svg_235" points="153009.99361038208,58874.6949596405 153046.24361038208,59121.5465221405 153256.85298538208,59116.6480846405 " stroke-miterlimit="10" stroke-width="3" fill="none"/>
     <path stroke="#000000" id="svg_236" d="m153132.474696,59916.572355c19.016,-5.012 40.086,-15.684 56.46,-24.302c27.05,-14.218 20.568,-20.555 52.809,-49.958c3.607,-3.299 7.835,-9.007 12.037,-13.277l-65.501,-72.722l-55.805,160.259z" stroke-miterlimit="10" stroke-width="3" fill="none"/>
     <polygon stroke="#000000" id="svg_237" points="153256.85298538208,59116.6480846405 153063.86861038208,59160.7301158905 153255.86861038208,59254.7691783905 " stroke-miterlimit="10" stroke-width="3" fill="none"/>
     <polygon stroke="#000000" id="svg_238" points="153057.99361038208,59543.7457408905 153188.27486038208,59756.3121471405 153225.49361038208,59542.7652721405 " stroke-miterlimit="10" stroke-width="3" fill="none"/>
     <polygon stroke="#000000" id="svg_239" points="153063.86861038208,59160.7301158905 153196.11861038208,59458.5230846405 153255.86861038208,59254.7691783905 " stroke-miterlimit="10" stroke-width="3" fill="none"/>
     <polygon stroke="#000000" id="svg_240" points="153046.24361038208,59121.5465221405 153063.86861038208,59160.7301158905 153256.85298538208,59116.6480846405 " stroke-miterlimit="10" stroke-width="3" fill="none"/>
     <path stroke="#000000" id="svg_241" d="m153063.872696,59160.731355l-117.884,305.553c-0.155,3.816 -0.341,7.66 -0.515,11.518l250.641,-19.28l-132.242,-297.791z" stroke-miterlimit="10" stroke-width="3" fill="none"/>
     <polygon stroke="#000000" id="svg_242" points="153232.35298538208,59478.1129283905 153196.11861038208,59458.5230846405 153225.49361038208,59542.7652721405 " stroke-miterlimit="10" stroke-width="3" fill="none"/>
     <polygon stroke="#000000" id="svg_243" points="153182.39986038208,58682.6949596405 153143.21236038208,58805.1441783905 153235.29048538208,58794.3668346405 " stroke-miterlimit="10" stroke-width="3" fill="none"/>
     <polygon stroke="#000000" id="svg_244" points="152990.39986038208,59611.3355846405 153188.27486038208,59756.3121471405 153057.99361038208,59543.7457408905 " stroke-miterlimit="10" stroke-width="3" fill="none"/>
     <path stroke="#000000" id="svg_245" d="m153132.474696,59916.572355l55.804,-160.259l-202.772,83.264l73.116,78.784c18.76,4.194 53.324,3.622 73.852,-1.789z" stroke-miterlimit="10" stroke-width="3" fill="none"/>
     <polygon stroke="#000000" id="svg_246" points="153196.11861038208,59458.5230846405 153057.99361038208,59543.7457408905 153225.49361038208,59542.7652721405 " stroke-miterlimit="10" stroke-width="3" fill="none"/>
     <path stroke="#000000" id="svg_247" d="m153009.995696,58874.694355l-17.435,42.715c3.05,2.008 6.281,3.491 9.685,4.316c-2.834,7.79 -35.078,69.223 -41.17,107.635l85.164,92.188l-36.244,-246.854z" stroke-miterlimit="10" stroke-width="3" fill="none"/>
     <path stroke="#000000" id="svg_248" d="m153066.946696,58355.167355c-31.029,-1.687 -25.257,-0.655 -37.142,6.726l76.671,0.257c-12.279,-6.155 -26.349,-6.263 -39.529,-6.983z" stroke-miterlimit="10" stroke-width="3" fill="none"/>
     <path stroke="#000000" id="svg_249" d="m153106.475696,58362.150355l-76.671,-0.257c-22.999,14.283 -52.816,15.574 -61.026,58.87l160.241,-45.683c-9.88,-1.197 -14.888,-9.093 -22.544,-12.93z" stroke-miterlimit="10" stroke-width="3" fill="none"/>
     <path stroke="#000000" id="svg_250" d="m153053.624696,58368.940355c0.137,-0.049 0.284,-0.098 0.421,-0.147c-0.166,0.059 -0.313,0.118 -0.421,0.147z" stroke-miterlimit="10" stroke-width="3" fill="none"/>
     <path stroke="#000000" id="svg_251" d="m153167.715696,58383.461355c-20.851,-7.822 -33.316,-7.729 -38.695,-8.381l-160.242,45.683c-1.039,5.48 -1.754,11.391 -2.115,17.46l154.024,114.19l47.028,-168.952z" stroke-miterlimit="10" stroke-width="3" fill="none"/>
     <path stroke="#000000" id="svg_252" d="m153196.114696,59458.522355l-250.641,19.28c-0.038,0.843 -0.076,1.685 -0.111,2.529l112.632,63.414l138.12,-85.223z" stroke-miterlimit="10" stroke-width="3" fill="none"/>
     <polygon stroke="#000000" id="svg_253" points="152985.50923538208,59839.5777721405 153188.27486038208,59756.3121471405 152990.39986038208,59611.3355846405 " stroke-miterlimit="10" stroke-width="3" fill="none"/>
     <path stroke="#000000" id="svg_254" d="m153182.400696,58682.697355l-223.816,-0.711c-3.35,20.736 4.932,17.636 9.973,23.193c5.778,6.386 4.36,5.757 1.224,20.499l173.435,79.465l39.184,-122.446z" stroke-miterlimit="10" stroke-width="3" fill="none"/>
     <path stroke="#000000" id="svg_255" d="m153120.687696,58552.413355l-155.237,81.315c5.745,6.441 11.95,11.882 17.096,13.334c-15.028,11.047 -21.119,17.332 -23.962,34.925l223.816,0.711l-61.713,-130.285z" stroke-miterlimit="10" stroke-width="3" fill="none"/>
     <path stroke="#000000" id="svg_256" d="m152957.746696,59165.959355c1.079,26.38 10.625,40.078 29.365,60.317c-20.744,18.864 -47.627,70.444 -22.628,104.991c7.827,10.795 8.268,11.5 3.732,23.941c-23.159,63.697 -21.809,100.795 -22.227,111.077l117.883,-305.554l-106.125,5.228z" stroke-miterlimit="10" stroke-width="3" fill="none"/>
     <path stroke="#000000" id="svg_257" d="m153143.217696,58805.144355l-173.435,-79.465c-7.857,36.922 -11.331,29.323 -11.989,75.03l52.202,73.985l133.222,-69.55z" stroke-miterlimit="10" stroke-width="3" fill="none"/>
     <path stroke="#000000" id="svg_258" d="m152977.396696,59876.072355c9.278,8.633 26.17,17.976 35.331,20.969c2.361,0.764 9.659,-1.744 10.393,-1.381c10.375,5.107 9.048,16.788 35.502,22.702l-73.116,-78.784l-8.11,36.494z" stroke-miterlimit="10" stroke-width="3" fill="none"/>
     <path stroke="#000000" id="svg_259" d="m152966.663696,58438.224355c-1.028,17.265 0.797,35.794 6.107,49.216c3.81,9.639 9.766,16.467 6.965,25.156c-5.017,15.549 -50.782,60.397 -30.377,98.673c2.903,5.458 9.162,14.688 16.092,22.46l155.237,-81.314l-154.024,-114.191z" stroke-miterlimit="10" stroke-width="3" fill="none"/>
     <path stroke="#000000" id="svg_260" d="m153046.239696,59121.548355l-88.214,23.842c-0.314,6.857 -0.557,13.784 -0.279,20.569l106.126,-5.228l-17.633,-39.183z" stroke-miterlimit="10" stroke-width="3" fill="none"/>
     <path stroke="#000000" id="svg_261" d="m153057.994696,59543.745355l-112.632,-63.414c-0.109,2.588 -0.199,5.179 -0.266,7.771l45.307,123.234l67.591,-67.591z" stroke-miterlimit="10" stroke-width="3" fill="none"/>
     <path stroke="#000000" id="svg_262" d="m152961.076696,59029.360355c-4.025,25.385 -1.339,78.687 -3.051,116.029l88.214,-23.842l-85.163,-92.187z" stroke-miterlimit="10" stroke-width="3" fill="none"/>
     <path stroke="#000000" id="svg_263" d="m152990.403696,59611.336355l-47.129,30.495c-0.38,38.776 26.275,104.233 22.237,126.219c-0.294,1.587 -5.975,5.358 -6.622,7.19c-1.606,4.545 -0.519,7.112 -1.126,11.412c-0.383,2.732 -5.995,24.626 -1.811,48.138l29.554,4.787l4.897,-228.241z" stroke-miterlimit="10" stroke-width="3" fill="none"/>
     <path stroke="#000000" id="svg_264" d="m152966.238696,58878.963355c5.831,15.678 14.771,30.84 26.322,38.446l17.435,-42.715l-43.757,4.269z" stroke-miterlimit="10" stroke-width="3" fill="none"/>
     <path stroke="#000000" id="svg_265" d="m152957.793696,58800.710355c-0.606,42.079 0.619,57.21 8.445,78.253l43.757,-4.269l-52.202,-73.984z" stroke-miterlimit="10" stroke-width="3" fill="none"/>
     <path stroke="#000000" id="svg_266" d="m152961.741696,59853.796355c3.659,8.142 8.898,15.989 15.655,22.276l8.11,-36.494l-23.765,14.218z" stroke-miterlimit="10" stroke-width="3" fill="none"/>
     <path stroke="#000000" id="svg_267" d="m152945.097696,59488.102355c-1.893,72.973 36.112,69.51 16.919,101.649l28.387,21.585l-45.306,-123.234z" stroke-miterlimit="10" stroke-width="3" fill="none"/>
     <path stroke="#000000" id="svg_268" d="m152962.016696,59589.751355c-7.81,13.079 -13.769,17.045 -16.857,31.792l45.245,-10.208l-28.388,-21.584z" stroke-miterlimit="10" stroke-width="3" fill="none"/>
     <path stroke="#000000" id="svg_269" d="m152945.159696,59621.544355c-1.369,6.539 -1.82,13.556 -1.884,20.288l47.129,-30.495l-45.245,10.207z" stroke-miterlimit="10" stroke-width="3" fill="none"/>
     <path stroke="#000000" id="svg_270" d="m152955.952696,59834.791355c1.162,6.53 3.04,12.889 5.789,19.006l23.764,-14.219l-29.553,-4.787z" stroke-miterlimit="10" stroke-width="3" fill="none"/>
     <path stroke="#000000" id="svg_271" d="m152735.232696,58368.960355c-0.157,-0.059 -0.314,-0.108 -0.47,-0.167c0.196,0.069 0.353,0.128 0.47,0.167z" stroke-miterlimit="10" stroke-width="3" fill="none"/>
     <path stroke="#000000" id="svg_272" d="m152685.170696,59920.882355c9.142,0.647 18.607,0.714 27.691,0l-27.691,0z" stroke-miterlimit="10" stroke-width="3" fill="none"/>
     <path stroke="#000000" id="svg_273" d="m152829.602696,58697.357355c2.132,-4.411 1.452,-10.303 0.598,-15.529l-34.732,-0.11l34.134,15.639z" stroke-miterlimit="10" stroke-width="3" fill="none"/>
     <path stroke="#000000" id="svg_274" d="m152830.200696,58681.828355c-1.349,-8.254 -3.004,-12.364 -4.866,-15.754l-29.866,15.644l34.732,0.11z" stroke-miterlimit="10" stroke-width="3" fill="none"/>
     <path stroke="#000000" id="svg_275" d="m152825.991696,59328.892355c21.707,-31.776 -2.399,-82.714 -24.284,-102.606c17.982,-19.439 27.738,-33.108 29.234,-57.941l-44.289,2.182l39.339,158.365z" stroke-miterlimit="10" stroke-width="3" fill="none"/>
     <path stroke="#000000" id="svg_276" d="m152816.342696,58711.303355c0.265,-1.786 1.383,-3.326 3.917,-6.123c3.85,-4.254 6.995,-2.969 9.342,-7.823l-34.134,-15.64l20.875,29.586z" stroke-miterlimit="10" stroke-width="3" fill="none"/>
     <path stroke="#000000" id="svg_277" d="m152825.334696,58666.073355c-4.358,-7.936 -11.298,-13.299 -19.062,-19.012c5.551,-1.567 58.961,-36.887 27.474,-93.427l-38.278,128.084l29.866,-15.645z" stroke-miterlimit="10" stroke-width="3" fill="none"/>
     <path stroke="#000000" id="svg_278" d="m152795.468696,58681.718355l38.277,-128.082c-28.959,-52.003 -30.516,-33.796 -17.707,-66.196c2.28,-5.762 3.911,-12.471 4.956,-19.612l-69.607,57.157l44.081,156.733z" stroke-miterlimit="10" stroke-width="3" fill="none"/>
     <path stroke="#000000" id="svg_279" d="m152830.940696,59168.345355c0.196,-3.253 0.26,-6.545 0.239,-9.853l-44.528,12.035l44.289,-2.182z" stroke-miterlimit="10" stroke-width="3" fill="none"/>
     <path stroke="#000000" id="svg_280" d="m152831.179696,59158.492355c-0.126,-20.072 -1.235,-4.767 -0.993,-64.646l-43.535,76.681l44.528,-12.035z" stroke-miterlimit="10" stroke-width="3" fill="none"/>
     <path stroke="#000000" id="svg_281" d="m152699.469696,59449.706355l143.724,24.958c-0.827,-17.793 0.775,-55.281 -22.6,-119.456c-5.131,-14.104 -3.508,-13.278 5.398,-26.316l-39.339,-158.365l-87.183,279.179z" stroke-miterlimit="10" stroke-width="3" fill="none"/>
     <path stroke="#000000" id="svg_282" d="m152833.841696,59827.705355c2.105,-20.774 -2.341,-37.873 -2.787,-41.053c-0.607,-4.3 0.47,-6.857 -1.126,-11.402c-0.656,-1.842 -6.338,-5.613 -6.632,-7.2c-3.585,-19.518 20.509,-88.706 21.982,-113.517l-216.338,139.984l204.901,33.188z" stroke-miterlimit="10" stroke-width="3" fill="none"/>
     <path stroke="#000000" id="svg_283" d="m152811.598696,58978.184355c-3.451,-8.354 -6.695,-16.756 -10.244,-25.103c-4.408,-10.354 -11.01,-20.963 -14.792,-31.356c14.466,-3.505 25.815,-18.865 33.34,-36.131l-129.249,12.61l120.945,79.98z" stroke-miterlimit="10" stroke-width="3" fill="none"/>
     <path stroke="#000000" id="svg_284" d="m152690.653696,58898.204355l129.249,-12.61c6.482,-14.874 10.127,-31.163 10.477,-42.51c0.774,-25.4 1.646,-53.896 -1.822,-79.13c-0.316,-2.302 -12.883,-48.141 -12.214,-52.652l-20.875,-29.584l-104.815,216.486z" stroke-miterlimit="10" stroke-width="3" fill="none"/>
     <path stroke="#000000" id="svg_285" d="m152830.789696,59549.557355c12.788,-23.698 14.146,-37.4 12.404,-74.893l-143.724,-24.958l131.32,99.851z" stroke-miterlimit="10" stroke-width="3" fill="none"/>
     <path stroke="#000000" id="svg_286" d="m152590.736696,59683.825355l253.786,-57.256c-3.73,-26.839 -24.457,-36.528 -22.92,-53.62c0.665,-7.455 4.938,-15.517 9.187,-23.391l-131.32,-99.851l-108.733,234.118z" stroke-miterlimit="10" stroke-width="3" fill="none"/>
     <path stroke="#000000" id="svg_287" d="m152628.939696,59794.517355l216.338,-139.984c0.346,-5.835 0.581,-18.34 -0.756,-27.965l-253.786,57.256l38.204,110.693z" stroke-miterlimit="10" stroke-width="3" fill="none"/>
     <path stroke="#000000" id="svg_288" d="m152765.687696,59895.660355c0.745,-0.363 8.032,2.145 10.393,1.381c32.272,-10.545 54.173,-33.937 57.761,-69.336l-204.902,-33.188l29.164,122.489c19.313,4.76 35.015,3.876 54.758,3.876c43.626,-3.43 41.165,-19.473 52.826,-25.222z" stroke-miterlimit="10" stroke-width="3" fill="none"/>
     <path stroke="#000000" id="svg_289" d="m152786.651696,59170.526355l43.535,-76.681c0.078,-19.338 -0.057,-38.733 -1.675,-57.883l-141.776,55.218l99.916,79.346z" stroke-miterlimit="10" stroke-width="3" fill="none"/>
     <polygon stroke="#000000" id="svg_290" points="152690.64986038208,58898.2027721405 152795.46236038208,58681.7183971405 152726.89986038208,58677.8004283905 " stroke-miterlimit="10" stroke-width="3" fill="none"/>
     <path stroke="#000000" id="svg_291" d="m152820.994696,58467.828355c4.406,-30.105 1.217,-68.39 -24.121,-86.167l-45.486,143.324l69.607,-57.157z" stroke-miterlimit="10" stroke-width="3" fill="none"/>
     <path stroke="#000000" id="svg_292" d="m152686.734696,59091.181355l141.776,-55.218c-2.15,-25.401 -16.507,-56.795 -16.913,-57.778l-120.945,-79.98l-3.918,192.976z" stroke-miterlimit="10" stroke-width="3" fill="none"/>
     <polygon stroke="#000000" id="svg_293" points="152699.46236038208,59449.7066783905 152786.64986038208,59170.5269908905 152697.50923538208,59156.8121471405 " stroke-miterlimit="10" stroke-width="3" fill="none"/>
     <polygon stroke="#000000" id="svg_294" points="152795.46236038208,58681.7183971405 152751.38423538208,58524.9840221405 152726.89986038208,58677.8004283905 " stroke-miterlimit="10" stroke-width="3" fill="none"/>
     <polygon stroke="#000000" id="svg_295" points="152786.64986038208,59170.5269908905 152686.72798538208,59091.1793346405 152697.50923538208,59156.8121471405 " stroke-miterlimit="10" stroke-width="3" fill="none"/>
     <path stroke="#000000" id="svg_296" d="m152796.873696,58381.661355c-13.561,-9.514 -31.076,-13.837 -43.371,-23.613c-8.488,-6.294 -21.536,-3.378 -35.453,-2.683l33.339,169.621l45.485,-143.325z" stroke-miterlimit="10" stroke-width="3" fill="none"/>
     <path stroke="#000000" id="svg_297" d="m152734.762696,58368.793355c0.157,0.059 0.313,0.108 0.47,0.167c-0.117,-0.039 -0.274,-0.098 -0.47,-0.167z" stroke-miterlimit="10" stroke-width="3" fill="none"/>
     <path stroke="#000000" id="svg_298" d="m152751.387696,58524.985355l-33.339,-169.62c-53.245,2.662 -34.862,17.709 -64.15,20.247c-20.62,1.783 -41.985,10.413 -59.764,20.659c-8.434,4.859 -17.407,19.748 -26.586,21.423c-9.913,1.812 -25.704,-12.235 -35.039,-15.82c-25.857,-9.902 -50.717,-11.548 -73.217,-5.487l-30.186,19.865l322.281,108.733z" stroke-miterlimit="10" stroke-width="3" fill="none"/>
     <polygon stroke="#000000" id="svg_299" points="152474.16548538208,59170.5269908905 152699.46236038208,59449.7066783905 152697.50923538208,59156.8121471405 " stroke-miterlimit="10" stroke-width="3" fill="none"/>
     <polygon stroke="#000000" id="svg_300" points="152590.72798538208,59683.8238658905 152699.46236038208,59449.7066783905 152496.69673538208,59570.1949596405 " stroke-miterlimit="10" stroke-width="3" fill="none"/>
     <polygon stroke="#000000" id="svg_301" points="152560.36861038208,58880.5699596405 152690.64986038208,58898.2027721405 152726.89986038208,58677.8004283905 " stroke-miterlimit="10" stroke-width="3" fill="none"/>
     <polygon stroke="#000000" id="svg_302" points="152751.38423538208,58524.9840221405 152426.16548538208,58619.0230846405 152726.89986038208,58677.8004283905 " stroke-miterlimit="10" stroke-width="3" fill="none"/>
     <polygon stroke="#000000" id="svg_303" points="152429.10298538208,58416.2535533905 152426.16548538208,58619.0230846405 152751.38423538208,58524.9840221405 " stroke-miterlimit="10" stroke-width="3" fill="none"/>
     <polygon stroke="#000000" id="svg_304" points="152686.72798538208,59091.1793346405 152690.64986038208,58898.2027721405 152560.36861038208,58880.5699596405 " stroke-miterlimit="10" stroke-width="3" fill="none"/>
     <polygon stroke="#000000" id="svg_305" points="152442.82173538208,59452.6441783905 152699.46236038208,59449.7066783905 152474.16548538208,59170.5269908905 " stroke-miterlimit="10" stroke-width="3" fill="none"/>
     <polygon stroke="#000000" id="svg_306" points="152726.89986038208,58677.8004283905 152426.16548538208,58619.0230846405 152560.36861038208,58880.5699596405 " stroke-miterlimit="10" stroke-width="3" fill="none"/>
     <polygon stroke="#000000" id="svg_307" points="152419.30611038208,59099.9957408905 152686.72798538208,59091.1793346405 152560.36861038208,58880.5699596405 " stroke-miterlimit="10" stroke-width="3" fill="none"/>
     <path stroke="#000000" id="svg_308" d="m152459.292696,58396.387355c-10.949,2.95 -21.333,7.738 -31.006,14.279l0.82,5.586l30.186,-19.865z" stroke-miterlimit="10" stroke-width="3" fill="none"/>
     <polygon stroke="#000000" id="svg_309" points="152496.69673538208,59570.1949596405 152699.46236038208,59449.7066783905 152442.82173538208,59452.6441783905 " stroke-miterlimit="10" stroke-width="3" fill="none"/>
     <polygon stroke="#000000" id="svg_310" points="152697.50923538208,59156.8121471405 152686.72798538208,59091.1793346405 152474.16548538208,59170.5269908905 " stroke-miterlimit="10" stroke-width="3" fill="none"/>
     <path stroke="#000000" id="svg_311" d="m152550.214696,59845.154355c26.816,24.154 22.407,32.782 49.66,47.116c16.892,8.886 38.76,19.938 58.229,24.736l-29.164,-122.489l-78.725,50.637z" stroke-miterlimit="10" stroke-width="3" fill="none"/>
     <polygon stroke="#000000" id="svg_312" points="152474.16548538208,59170.5269908905 152686.72798538208,59091.1793346405 152419.30611038208,59099.9957408905 " stroke-miterlimit="10" stroke-width="3" fill="none"/>
     <path stroke="#000000" id="svg_313" d="m152543.716696,59712.232355l-61.645,116.684c55.67,-13.736 44.264,-5.274 68.143,16.237l78.725,-50.637l-85.223,-82.284z" stroke-miterlimit="10" stroke-width="3" fill="none"/>
     <polygon stroke="#000000" id="svg_314" points="152543.71236038208,59712.2301158905 152628.93111038208,59794.5152721405 152590.72798538208,59683.8238658905 " stroke-miterlimit="10" stroke-width="3" fill="none"/>
     <polygon stroke="#000000" id="svg_315" points="152426.16548538208,58619.0230846405 152343.88423538208,58679.7574596405 152560.36861038208,58880.5699596405 " stroke-miterlimit="10" stroke-width="3" fill="none"/>
     <polygon stroke="#000000" id="svg_316" points="152560.36861038208,58880.5699596405 152325.27486038208,58982.4488658905 152419.30611038208,59099.9957408905 " stroke-miterlimit="10" stroke-width="3" fill="none"/>
     <polygon stroke="#000000" id="svg_317" points="152496.69673538208,59570.1949596405 152543.71236038208,59712.2301158905 152590.72798538208,59683.8238658905 " stroke-miterlimit="10" stroke-width="3" fill="none"/>
     <path stroke="#000000" id="svg_318" d="m152429.106696,58416.252355l-52.843,72.312c-4.569,27.794 6.606,34.852 5.333,49.833c-0.429,5.064 -2.441,8.204 -5.365,10.169l49.937,70.459l2.938,-202.773z" stroke-miterlimit="10" stroke-width="3" fill="none"/>
     <polygon stroke="#000000" id="svg_319" points="152474.16548538208,59170.5269908905 152297.83736038208,59295.9098033905 152442.82173538208,59452.6441783905 " stroke-miterlimit="10" stroke-width="3" fill="none"/>
     <polygon stroke="#000000" id="svg_320" points="152343.88423538208,58679.7574596405 152276.29048538208,58808.0816783905 152560.36861038208,58880.5699596405 " stroke-miterlimit="10" stroke-width="3" fill="none"/>
     <polygon stroke="#000000" id="svg_321" points="152276.29048538208,58808.0816783905 152325.27486038208,58982.4488658905 152560.36861038208,58880.5699596405 " stroke-miterlimit="10" stroke-width="3" fill="none"/>
     <path stroke="#000000" id="svg_322" d="m152380.372696,59815.770355c30.465,15.014 60.989,23.192 101.7,13.147l61.645,-116.684l-163.345,103.537z" stroke-miterlimit="10" stroke-width="3" fill="none"/>
     <path stroke="#000000" id="svg_323" d="m152310.577696,59641.703355l-3.537,51.509c11.4,9.968 8.287,38.691 15.418,53.493c8.189,16.996 13.361,35.627 26.517,49.86c8.926,9.65 20.137,13.655 31.396,19.204l163.345,-103.537l-233.139,-70.529z" stroke-miterlimit="10" stroke-width="3" fill="none"/>
     <polygon stroke="#000000" id="svg_324" points="152310.57173538208,59641.7027721405 152543.71236038208,59712.2301158905 152496.69673538208,59570.1949596405 " stroke-miterlimit="10" stroke-width="3" fill="none"/>
     <polygon stroke="#000000" id="svg_325" points="152442.82173538208,59452.6441783905 152322.33736038208,59460.4801158905 152496.69673538208,59570.1949596405 " stroke-miterlimit="10" stroke-width="3" fill="none"/>
     <polygon stroke="#000000" id="svg_326" points="152322.33736038208,59460.4801158905 152310.57173538208,59641.7027721405 152496.69673538208,59570.1949596405 " stroke-miterlimit="10" stroke-width="3" fill="none"/>
     <path stroke="#000000" id="svg_327" d="m152428.286696,58410.666355c-1.087,0.735 -2.171,1.48 -3.24,2.259l4.06,3.327l-0.82,-5.586z" stroke-miterlimit="10" stroke-width="3" fill="none"/>
     <polygon stroke="#000000" id="svg_328" points="152297.83736038208,59295.9098033905 152322.33736038208,59460.4801158905 152442.82173538208,59452.6441783905 " stroke-miterlimit="10" stroke-width="3" fill="none"/>
     <polygon stroke="#000000" id="svg_329" points="152419.30611038208,59099.9957408905 152297.83736038208,59295.9098033905 152474.16548538208,59170.5269908905 " stroke-miterlimit="10" stroke-width="3" fill="none"/>
     <path stroke="#000000" id="svg_330" d="m152425.046696,58412.925355c-22.602,16.487 -43.834,45.537 -48.783,75.639l52.843,-72.312l-4.06,-3.327z" stroke-miterlimit="10" stroke-width="3" fill="none"/>
     <path stroke="#000000" id="svg_331" d="m152426.167696,58619.025355l-49.937,-70.459c-5.98,4.018 -15.793,3.089 -23.83,3.435l-8.517,127.758l82.284,-60.734z" stroke-miterlimit="10" stroke-width="3" fill="none"/>
     <polygon stroke="#000000" id="svg_332" points="152325.27486038208,58982.4488658905 152297.83736038208,59295.9098033905 152419.30611038208,59099.9957408905 " stroke-miterlimit="10" stroke-width="3" fill="none"/>
     <polygon stroke="#000000" id="svg_333" points="152147.96236038208,59277.3004283905 152297.83736038208,59295.9098033905 152325.27486038208,58982.4488658905 " stroke-miterlimit="10" stroke-width="3" fill="none"/>
     <path stroke="#000000" id="svg_334" d="m152275.299696,59681.647355c17.439,7.379 26.009,6.553 31.741,11.564l3.537,-51.509l-35.278,39.945z" stroke-miterlimit="10" stroke-width="3" fill="none"/>
     <path stroke="#000000" id="svg_335" d="m152322.332696,59460.481355l-138.783,85.956c0.461,6.209 1.413,12.17 2.838,17.973l124.19,77.293l11.755,-181.222z" stroke-miterlimit="10" stroke-width="3" fill="none"/>
     <path stroke="#000000" id="svg_336" d="m152325.271696,58982.448355l-154.128,18.664c-0.126,5.806 0.369,22.655 1.704,39.241c-3.076,1.734 -6.132,3.517 -9.159,5.339c-7.626,9.811 -33.837,38.153 -41.23,88.328c-4.888,33.178 7.807,48.489 35.01,63.447c-8.323,10.078 -16.078,21.381 -22.382,33.463l12.881,46.371l177.304,-294.853z" stroke-miterlimit="10" stroke-width="3" fill="none"/>
     <path stroke="#000000" id="svg_337" d="m152276.292696,58808.083355l-73.107,67.604c1.513,11.006 4.121,21.727 6.782,32.579l115.304,74.181l-48.979,-174.364z" stroke-miterlimit="10" stroke-width="3" fill="none"/>
     <path stroke="#000000" id="svg_338" d="m152352.400696,58552.001355c-59.924,2.577 -51.613,82.197 -58.073,114.922l49.556,12.836l8.517,-127.758z" stroke-miterlimit="10" stroke-width="3" fill="none"/>
     <path stroke="#000000" id="svg_339" d="m152297.842696,59295.912355l-122.281,90.983c24.262,20.254 17.741,20.409 14.352,44.083l132.419,29.503l-24.49,-164.569z" stroke-miterlimit="10" stroke-width="3" fill="none"/>
     <path stroke="#000000" id="svg_340" d="m152343.883696,58679.758355l-49.556,-12.836c-9.305,47.138 -45.651,43.518 -73.344,91.944l55.309,49.216l67.591,-128.324z" stroke-miterlimit="10" stroke-width="3" fill="none"/>
     <path stroke="#000000" id="svg_341" d="m152209.967696,58908.266355c5.341,21.781 5.135,17.845 -7.233,27.536c-19.231,15.077 -31.153,45.078 -31.591,65.31l154.127,-18.664l-115.303,-74.182z" stroke-miterlimit="10" stroke-width="3" fill="none"/>
     <path stroke="#000000" id="svg_342" d="m152186.387696,59564.410355c7.35,29.919 43.405,80.275 48.859,86.738c12.788,15.152 23.793,23.62 40.052,30.5l35.278,-39.945l-124.189,-77.293z" stroke-miterlimit="10" stroke-width="3" fill="none"/>
     <path stroke="#000000" id="svg_343" d="m152189.913696,59430.979355c-2.094,14.623 6.139,20.867 6.934,31.738c0.549,7.454 -5.789,18.7 -7.19,28.917c-2.163,15.682 -7.903,30.627 -6.108,54.804l138.783,-85.956l-132.419,-29.503z" stroke-miterlimit="10" stroke-width="3" fill="none"/>
     <path stroke="#000000" id="svg_344" d="m152147.967696,59277.300355l-7.702,73.94c6.344,8.215 19.153,22.18 35.296,35.655l122.281,-90.983l-149.875,-18.612z" stroke-miterlimit="10" stroke-width="3" fill="none"/>
     <path stroke="#000000" id="svg_345" d="m152220.983696,58758.867355c-19.976,34.932 -22.992,79.033 -17.798,116.82l73.107,-67.604l-55.309,-49.216z" stroke-miterlimit="10" stroke-width="3" fill="none"/>
     <path stroke="#000000" id="svg_346" d="m152154.678696,59230.929355c-7.053,13.516 -12.274,28.009 -14.42,42.871l27.301,3.5l-12.881,-46.371z" stroke-miterlimit="10" stroke-width="3" fill="none"/>
     <path stroke="#000000" id="svg_347" d="m152139.186696,59289.770355c0.284,20.778 6.712,43.394 20.671,61.47l7.702,-73.94l-28.373,12.47z" stroke-miterlimit="10" stroke-width="3" fill="none"/>
     <path stroke="#000000" id="svg_348" d="m152140.258696,59273.800355c-0.763,5.287 -1.146,10.618 -1.072,15.97l28.373,-12.47l-27.301,-3.5z" stroke-miterlimit="10" stroke-width="3" fill="none"/>
    </g>
    <g stroke="null" id="svg_349">
     <circle stroke="null" id="svg_350" r="17.143" cy="58368.940355" cx="153053.624696"/>
     <circle stroke="null" id="svg_351" r="17.143" cy="58368.793355" cx="153054.045696"/>
     <circle stroke="null" id="svg_352" r="17.143" cy="59920.882355" cx="153103.642696"/>
     <circle stroke="null" id="svg_353" r="17.143" cy="59920.882355" cx="153075.951696"/>
     <circle stroke="null" id="svg_354" r="17.143" cy="58880.909355" cx="153584.824696"/>
     <circle stroke="null" id="svg_355" r="17.143" cy="58761.081355" cx="153569.068696"/>
     <circle stroke="null" id="svg_356" r="17.143" cy="58824.736355" cx="153455.702696"/>
     <circle stroke="null" id="svg_357" r="17.143" cy="58709.632355" cx="153521.383696"/>
     <circle stroke="null" id="svg_358" r="17.143" cy="58761.081355" cx="153569.068696"/>
     <circle stroke="null" id="svg_359" r="17.143" cy="58880.909355" cx="153584.824696"/>
     <circle stroke="null" id="svg_360" r="17.143" cy="58921.504355" cx="153575.799696"/>
     <circle stroke="null" id="svg_361" r="17.143" cy="59535.909355" cx="153529.171696"/>
     <circle stroke="null" id="svg_362" r="17.143" cy="59551.816355" cx="153604.732696"/>
     <circle stroke="null" id="svg_363" r="17.143" cy="59612.209355" cx="153579.745696"/>
     <circle stroke="null" id="svg_364" r="17.143" cy="59685.266355" cx="153504.141696"/>
     <circle stroke="null" id="svg_365" r="17.143" cy="59692.127355" cx="153483.187696"/>
     <circle stroke="null" id="svg_366" r="17.143" cy="59535.909355" cx="153529.171696"/>
     <circle stroke="null" id="svg_367" r="17.143" cy="59452.183355" cx="153594.891696"/>
     <circle stroke="null" id="svg_368" r="17.143" cy="59462.716355" cx="153591.970696"/>
     <circle stroke="null" id="svg_369" r="17.143" cy="59551.816355" cx="153604.732696"/>
     <circle stroke="null" id="svg_370" r="17.143" cy="59153.874355" cx="153463.539696"/>
     <circle stroke="null" id="svg_371" r="17.143" cy="58938.588355" cx="153589.442696"/>
     <circle stroke="null" id="svg_372" r="17.143" cy="58943.527355" cx="153594.556696"/>
     <circle stroke="null" id="svg_373" r="17.143" cy="59019.968355" cx="153617.227696"/>
     <circle stroke="null" id="svg_374" r="17.143" cy="59040.352355" cx="153615.970696"/>
     <circle stroke="null" id="svg_375" r="17.143" cy="59045.501355" cx="153624.799696"/>
     <circle stroke="null" id="svg_376" r="17.143" cy="59170.735355" cx="153661.941696"/>
     <circle stroke="null" id="svg_377" r="17.143" cy="59187.983355" cx="153646.328696"/>
     <circle stroke="null" id="svg_378" r="17.143" cy="59170.735355" cx="153661.941696"/>
     <circle stroke="null" id="svg_379" r="17.143" cy="59045.501355" cx="153624.799696"/>
     <circle stroke="null" id="svg_380" r="17.143" cy="59045.691355" cx="153625.119696"/>
     <circle stroke="null" id="svg_381" r="17.143" cy="59081.151355" cx="153649.452696"/>
     <circle stroke="null" id="svg_382" r="17.143" cy="59019.968355" cx="153617.227696"/>
     <circle stroke="null" id="svg_383" r="17.143" cy="58943.527355" cx="153594.556696"/>
     <circle stroke="null" id="svg_384" r="17.143" cy="58965.503355" cx="153608.300696"/>
     <circle stroke="null" id="svg_385" r="17.143" cy="59028.488355" cx="153443.947696"/>
     <circle stroke="null" id="svg_386" r="17.143" cy="58937.101355" cx="153587.691696"/>
     <circle stroke="null" id="svg_387" r="17.143" cy="58938.588355" cx="153589.442696"/>
     <circle stroke="null" id="svg_388" r="17.143" cy="59153.874355" cx="153463.539696"/>
     <circle stroke="null" id="svg_389" r="17.143" cy="59153.874355" cx="153463.539696"/>
     <circle stroke="null" id="svg_390" r="17.143" cy="59187.983355" cx="153646.328696"/>
     <circle stroke="null" id="svg_391" r="17.143" cy="59197.466355" cx="153631.349696"/>
     <circle stroke="null" id="svg_392" r="17.143" cy="59338.849355" cx="153656.675696"/>
     <circle stroke="null" id="svg_393" r="17.143" cy="58589.811355" cx="153483.136696"/>
     <circle stroke="null" id="svg_394" r="17.143" cy="58552.216355" cx="153439.454696"/>
     <circle stroke="null" id="svg_395" r="17.143" cy="59440.890355" cx="153420.438696"/>
     <circle stroke="null" id="svg_396" r="17.143" cy="59366.584355" cx="153635.007696"/>
     <circle stroke="null" id="svg_397" r="17.143" cy="59405.225355" cx="153596.319696"/>
     <circle stroke="null" id="svg_398" r="17.143" cy="59438.922355" cx="153599.170696"/>
     <circle stroke="null" id="svg_399" r="17.143" cy="59452.183355" cx="153594.891696"/>
     <circle stroke="null" id="svg_400" r="17.143" cy="59535.909355" cx="153529.171696"/>
     <circle stroke="null" id="svg_401" r="17.143" cy="59153.874355" cx="153463.539696"/>
     <circle stroke="null" id="svg_402" r="17.143" cy="59338.849355" cx="153656.675696"/>
     <circle stroke="null" id="svg_403" r="17.143" cy="59366.584355" cx="153635.007696"/>
     <circle stroke="null" id="svg_404" r="17.143" cy="59440.890355" cx="153420.438696"/>
     <circle stroke="null" id="svg_405" r="17.143" cy="58824.736355" cx="153455.702696"/>
     <circle stroke="null" id="svg_406" r="17.143" cy="58921.504355" cx="153575.799696"/>
     <circle stroke="null" id="svg_407" r="17.143" cy="58937.101355" cx="153587.691696"/>
     <circle stroke="null" id="svg_408" r="17.143" cy="59028.488355" cx="153443.947696"/>
     <circle stroke="null" id="svg_409" r="17.143" cy="58509.421355" cx="153413.152696"/>
     <circle stroke="null" id="svg_410" r="17.143" cy="58407.720355" cx="153355.945696"/>
     <circle stroke="null" id="svg_411" r="17.143" cy="59812.338355" cx="153415.651696"/>
     <circle stroke="null" id="svg_412" r="17.143" cy="59787.380355" cx="153446.954696"/>
     <circle stroke="null" id="svg_413" r="17.143" cy="58755.186355" cx="153347.949696"/>
     <circle stroke="null" id="svg_414" r="17.143" cy="58679.811355" cx="153497.988696"/>
     <circle stroke="null" id="svg_415" r="17.143" cy="58709.632355" cx="153521.383696"/>
     <circle stroke="null" id="svg_416" r="17.143" cy="58824.736355" cx="153455.702696"/>
     <circle stroke="null" id="svg_417" r="17.143" cy="58755.186355" cx="153347.949696"/>
     <circle stroke="null" id="svg_418" r="17.143" cy="58551.923355" cx="153433.685696"/>
     <circle stroke="null" id="svg_419" r="17.143" cy="58552.216355" cx="153439.454696"/>
     <circle stroke="null" id="svg_420" r="17.143" cy="58589.811355" cx="153483.136696"/>
     <circle stroke="null" id="svg_421" r="17.143" cy="58679.811355" cx="153497.988696"/>
     <circle stroke="null" id="svg_422" r="17.143" cy="59804.313355" cx="153354.806696"/>
     <circle stroke="null" id="svg_423" r="17.143" cy="59780.478355" cx="153451.060696"/>
     <circle stroke="null" id="svg_424" r="17.143" cy="59787.380355" cx="153446.954696"/>
     <circle stroke="null" id="svg_425" r="17.143" cy="59833.009355" cx="153341.393696"/>
     <circle stroke="null" id="svg_426" r="17.143" cy="59254.770355" cx="153255.869696"/>
     <circle stroke="null" id="svg_427" r="17.143" cy="59153.874355" cx="153463.539696"/>
     <circle stroke="null" id="svg_428" r="17.143" cy="59440.890355" cx="153420.438696"/>
     <circle stroke="null" id="svg_429" r="17.143" cy="59535.909355" cx="153529.171696"/>
     <circle stroke="null" id="svg_430" r="17.143" cy="59692.127355" cx="153483.187696"/>
     <circle stroke="null" id="svg_431" r="17.143" cy="59746.705355" cx="153466.359696"/>
     <circle stroke="null" id="svg_432" r="17.143" cy="59774.982355" cx="153453.864696"/>
     <circle stroke="null" id="svg_433" r="17.143" cy="59542.766355" cx="153225.502696"/>
     <circle stroke="null" id="svg_434" r="17.143" cy="59542.766355" cx="153225.502696"/>
     <circle stroke="null" id="svg_435" r="17.143" cy="59440.890355" cx="153420.438696"/>
     <circle stroke="null" id="svg_436" r="17.143" cy="59535.909355" cx="153529.171696"/>
     <circle stroke="null" id="svg_437" r="17.143" cy="59542.766355" cx="153225.502696"/>
     <circle stroke="null" id="svg_438" r="17.143" cy="59774.982355" cx="153453.864696"/>
     <circle stroke="null" id="svg_439" r="17.143" cy="59780.478355" cx="153451.060696"/>
     <circle stroke="null" id="svg_440" r="17.143" cy="59804.313355" cx="153354.806696"/>
     <circle stroke="null" id="svg_441" r="17.143" cy="58794.369355" cx="153235.297696"/>
     <circle stroke="null" id="svg_442" r="17.143" cy="58824.736355" cx="153455.702696"/>
     <circle stroke="null" id="svg_443" r="17.143" cy="59028.488355" cx="153443.947696"/>
     <circle stroke="null" id="svg_444" r="17.143" cy="58794.369355" cx="153235.297696"/>
     <circle stroke="null" id="svg_445" r="17.143" cy="58755.186355" cx="153347.949696"/>
     <circle stroke="null" id="svg_446" r="17.143" cy="58824.736355" cx="153455.702696"/>
     <circle stroke="null" id="svg_447" r="17.143" cy="59116.650355" cx="153256.848696"/>
     <circle stroke="null" id="svg_448" r="17.143" cy="59028.488355" cx="153443.947696"/>
     <circle stroke="null" id="svg_449" r="17.143" cy="59153.874355" cx="153463.539696"/>
     <circle stroke="null" id="svg_450" r="17.143" cy="59116.650355" cx="153256.848696"/>
     <circle stroke="null" id="svg_451" r="17.143" cy="59153.874355" cx="153463.539696"/>
     <circle stroke="null" id="svg_452" r="17.143" cy="59254.770355" cx="153255.869696"/>
     <circle stroke="null" id="svg_453" r="17.143" cy="58794.369355" cx="153235.297696"/>
     <circle stroke="null" id="svg_454" r="17.143" cy="59028.488355" cx="153443.947696"/>
     <circle stroke="null" id="svg_455" r="17.143" cy="59116.650355" cx="153256.848696"/>
     <circle stroke="null" id="svg_456" r="17.143" cy="59804.313355" cx="153354.806696"/>
     <circle stroke="null" id="svg_457" r="17.143" cy="59756.313355" cx="153188.278696"/>
     <circle stroke="null" id="svg_458" r="17.143" cy="59542.766355" cx="153225.502696"/>
     <circle stroke="null" id="svg_459" r="17.143" cy="59478.114355" cx="153232.359696"/>
     <circle stroke="null" id="svg_460" r="17.143" cy="59440.890355" cx="153420.438696"/>
     <circle stroke="null" id="svg_461" r="17.143" cy="59542.766355" cx="153225.502696"/>
     <circle stroke="null" id="svg_462" r="17.143" cy="58682.697355" cx="153182.400696"/>
     <circle stroke="null" id="svg_463" r="17.143" cy="58551.863355" cx="153428.788696"/>
     <circle stroke="null" id="svg_464" r="17.143" cy="58551.923355" cx="153433.685696"/>
     <circle stroke="null" id="svg_465" r="17.143" cy="58755.186355" cx="153347.949696"/>
     <circle stroke="null" id="svg_466" r="17.143" cy="59254.770355" cx="153255.869696"/>
     <circle stroke="null" id="svg_467" r="17.143" cy="59440.890355" cx="153420.438696"/>
     <circle stroke="null" id="svg_468" r="17.143" cy="59478.114355" cx="153232.359696"/>
     <circle stroke="null" id="svg_469" r="17.143" cy="58552.413355" cx="153120.687696"/>
     <circle stroke="null" id="svg_470" r="17.143" cy="58407.527355" cx="153355.639696"/>
     <circle stroke="null" id="svg_471" r="17.143" cy="58407.720355" cx="153355.945696"/>
     <circle stroke="null" id="svg_472" r="17.143" cy="58509.421355" cx="153413.152696"/>
     <circle stroke="null" id="svg_473" r="17.143" cy="58548.772355" cx="153412.902696"/>
     <circle stroke="null" id="svg_474" r="17.143" cy="58552.413355" cx="153120.687696"/>
     <circle stroke="null" id="svg_475" r="17.143" cy="58548.772355" cx="153412.902696"/>
     <circle stroke="null" id="svg_476" r="17.143" cy="58551.863355" cx="153428.788696"/>
     <circle stroke="null" id="svg_477" r="17.143" cy="58682.697355" cx="153182.400696"/>
     <circle stroke="null" id="svg_478" r="17.143" cy="59478.114355" cx="153232.359696"/>
     <circle stroke="null" id="svg_479" r="17.143" cy="59458.522355" cx="153196.114696"/>
     <circle stroke="null" id="svg_480" r="17.143" cy="59254.770355" cx="153255.869696"/>
     <circle stroke="null" id="svg_481" r="17.143" cy="59116.650355" cx="153256.848696"/>
     <circle stroke="null" id="svg_482" r="17.143" cy="58805.144355" cx="153143.217696"/>
     <circle stroke="null" id="svg_483" r="17.143" cy="58794.369355" cx="153235.297696"/>
     <circle stroke="null" id="svg_484" r="17.143" cy="58552.413355" cx="153120.687696"/>
     <circle stroke="null" id="svg_485" r="17.143" cy="58383.461355" cx="153167.715696"/>
     <circle stroke="null" id="svg_486" r="17.143" cy="58396.270355" cx="153194.683696"/>
     <circle stroke="null" id="svg_487" r="17.143" cy="58417.694355" cx="153221.259696"/>
     <circle stroke="null" id="svg_488" r="17.143" cy="58401.874355" cx="153256.308696"/>
     <circle stroke="null" id="svg_489" r="17.143" cy="58392.968355" cx="153297.282696"/>
     <circle stroke="null" id="svg_490" r="17.143" cy="58407.304355" cx="153355.252696"/>
     <circle stroke="null" id="svg_491" r="17.143" cy="58407.527355" cx="153355.639696"/>
     <circle stroke="null" id="svg_492" r="17.143" cy="58407.304355" cx="153355.252696"/>
     <circle stroke="null" id="svg_493" r="17.143" cy="58392.968355" cx="153297.282696"/>
     <circle stroke="null" id="svg_494" r="17.143" cy="58794.369355" cx="153235.297696"/>
     <circle stroke="null" id="svg_495" r="17.143" cy="58682.697355" cx="153182.400696"/>
     <circle stroke="null" id="svg_496" r="17.143" cy="58755.186355" cx="153347.949696"/>
     <circle stroke="null" id="svg_497" r="17.143" cy="59804.313355" cx="153354.806696"/>
     <circle stroke="null" id="svg_498" r="17.143" cy="59833.009355" cx="153341.393696"/>
     <circle stroke="null" id="svg_499" r="17.143" cy="59829.035355" cx="153253.779696"/>
     <circle stroke="null" id="svg_500" r="17.143" cy="59756.313355" cx="153188.278696"/>
     <circle stroke="null" id="svg_501" r="17.143" cy="59116.650355" cx="153256.848696"/>
     <circle stroke="null" id="svg_502" r="17.143" cy="58874.694355" cx="153009.995696"/>
     <circle stroke="null" id="svg_503" r="17.143" cy="58805.144355" cx="153143.217696"/>
     <circle stroke="null" id="svg_504" r="17.143" cy="59116.650355" cx="153256.848696"/>
     <circle stroke="null" id="svg_505" r="17.143" cy="59121.548355" cx="153046.239696"/>
     <circle stroke="null" id="svg_506" r="17.143" cy="58874.694355" cx="153009.995696"/>
     <circle stroke="null" id="svg_507" r="17.143" cy="59756.313355" cx="153188.278696"/>
     <circle stroke="null" id="svg_508" r="17.143" cy="59829.035355" cx="153253.779696"/>
     <circle stroke="null" id="svg_509" r="17.143" cy="59842.312355" cx="153241.742696"/>
     <circle stroke="null" id="svg_510" r="17.143" cy="59892.271355" cx="153188.933696"/>
     <circle stroke="null" id="svg_511" r="17.143" cy="59916.572355" cx="153132.474696"/>
     <circle stroke="null" id="svg_512" r="17.143" cy="59254.770355" cx="153255.869696"/>
     <circle stroke="null" id="svg_513" r="17.143" cy="59160.731355" cx="153063.872696"/>
     <circle stroke="null" id="svg_514" r="17.143" cy="59116.650355" cx="153256.848696"/>
     <circle stroke="null" id="svg_515" r="17.143" cy="59542.766355" cx="153225.502696"/>
     <circle stroke="null" id="svg_516" r="17.143" cy="59756.313355" cx="153188.278696"/>
     <circle stroke="null" id="svg_517" r="17.143" cy="59543.745355" cx="153057.994696"/>
     <circle stroke="null" id="svg_518" r="17.143" cy="59254.770355" cx="153255.869696"/>
     <circle stroke="null" id="svg_519" r="17.143" cy="59458.522355" cx="153196.114696"/>
     <circle stroke="null" id="svg_520" r="17.143" cy="59160.731355" cx="153063.872696"/>
     <circle stroke="null" id="svg_521" r="17.143" cy="59116.650355" cx="153256.848696"/>
     <circle stroke="null" id="svg_522" r="17.143" cy="59160.731355" cx="153063.872696"/>
     <circle stroke="null" id="svg_523" r="17.143" cy="59121.548355" cx="153046.239696"/>
     <circle stroke="null" id="svg_524" r="17.143" cy="59458.522355" cx="153196.114696"/>
     <circle stroke="null" id="svg_525" r="17.143" cy="59477.802355" cx="152945.474696"/>
     <circle stroke="null" id="svg_526" r="17.143" cy="59466.284355" cx="152945.988696"/>
     <circle stroke="null" id="svg_527" r="17.143" cy="59160.731355" cx="153063.872696"/>
     <circle stroke="null" id="svg_528" r="17.143" cy="59542.766355" cx="153225.502696"/>
     <circle stroke="null" id="svg_529" r="17.143" cy="59458.522355" cx="153196.114696"/>
     <circle stroke="null" id="svg_530" r="17.143" cy="59478.114355" cx="153232.359696"/>
     <circle stroke="null" id="svg_531" r="17.143" cy="58794.369355" cx="153235.297696"/>
     <circle stroke="null" id="svg_532" r="17.143" cy="58805.144355" cx="153143.217696"/>
     <circle stroke="null" id="svg_533" r="17.143" cy="58682.697355" cx="153182.400696"/>
     <circle stroke="null" id="svg_534" r="17.143" cy="59543.745355" cx="153057.994696"/>
     <circle stroke="null" id="svg_535" r="17.143" cy="59756.313355" cx="153188.278696"/>
     <circle stroke="null" id="svg_536" r="17.143" cy="59611.336355" cx="152990.403696"/>
     <circle stroke="null" id="svg_537" r="17.143" cy="59918.362355" cx="153058.622696"/>
     <circle stroke="null" id="svg_538" r="17.143" cy="59839.577355" cx="152985.505696"/>
     <circle stroke="null" id="svg_539" r="17.143" cy="59756.313355" cx="153188.278696"/>
     <circle stroke="null" id="svg_540" r="17.143" cy="59916.572355" cx="153132.474696"/>
     <circle stroke="null" id="svg_541" r="17.143" cy="59542.766355" cx="153225.502696"/>
     <circle stroke="null" id="svg_542" r="17.143" cy="59543.745355" cx="153057.994696"/>
     <circle stroke="null" id="svg_543" r="17.143" cy="59458.522355" cx="153196.114696"/>
     <circle stroke="null" id="svg_544" r="17.143" cy="59121.548355" cx="153046.239696"/>
     <circle stroke="null" id="svg_545" r="17.143" cy="59029.360355" cx="152961.076696"/>
     <circle stroke="null" id="svg_546" r="17.143" cy="58921.725355" cx="153002.245696"/>
     <circle stroke="null" id="svg_547" r="17.143" cy="58917.409355" cx="152992.560696"/>
     <circle stroke="null" id="svg_548" r="17.143" cy="58874.694355" cx="153009.995696"/>
     <circle stroke="null" id="svg_549" r="17.143" cy="58362.150355" cx="153106.475696"/>
     <circle stroke="null" id="svg_550" r="17.143" cy="58361.893355" cx="153029.804696"/>
     <circle stroke="null" id="svg_551" r="17.143" cy="58355.167355" cx="153066.946696"/>
     <circle stroke="null" id="svg_552" r="17.143" cy="58375.080355" cx="153129.020696"/>
     <circle stroke="null" id="svg_553" r="17.143" cy="58420.763355" cx="152968.778696"/>
     <circle stroke="null" id="svg_554" r="17.143" cy="58361.893355" cx="153029.804696"/>
     <circle stroke="null" id="svg_555" r="17.143" cy="58362.150355" cx="153106.475696"/>
     <circle stroke="null" id="svg_556" r="17.143" cy="58368.793355" cx="153054.045696"/>
     <circle stroke="null" id="svg_557" r="17.143" cy="58368.940355" cx="153053.624696"/>
     <circle stroke="null" id="svg_558" r="17.143" cy="58552.413355" cx="153120.687696"/>
     <circle stroke="null" id="svg_559" r="17.143" cy="58438.224355" cx="152966.663696"/>
     <circle stroke="null" id="svg_560" r="17.143" cy="58420.763355" cx="152968.778696"/>
     <circle stroke="null" id="svg_561" r="17.143" cy="58375.080355" cx="153129.020696"/>
     <circle stroke="null" id="svg_562" r="17.143" cy="58383.461355" cx="153167.715696"/>
     <circle stroke="null" id="svg_563" r="17.143" cy="59543.745355" cx="153057.994696"/>
     <circle stroke="null" id="svg_564" r="17.143" cy="59480.331355" cx="152945.362696"/>
     <circle stroke="null" id="svg_565" r="17.143" cy="59477.802355" cx="152945.474696"/>
     <circle stroke="null" id="svg_566" r="17.143" cy="59458.522355" cx="153196.114696"/>
     <circle stroke="null" id="svg_567" r="17.143" cy="59611.336355" cx="152990.403696"/>
     <circle stroke="null" id="svg_568" r="17.143" cy="59756.313355" cx="153188.278696"/>
     <circle stroke="null" id="svg_569" r="17.143" cy="59839.577355" cx="152985.505696"/>
     <circle stroke="null" id="svg_570" r="17.143" cy="58805.144355" cx="153143.217696"/>
     <circle stroke="null" id="svg_571" r="17.143" cy="58725.679355" cx="152969.782696"/>
     <circle stroke="null" id="svg_572" r="17.143" cy="58705.180355" cx="152968.558696"/>
     <circle stroke="null" id="svg_573" r="17.143" cy="58681.987355" cx="152958.584696"/>
     <circle stroke="null" id="svg_574" r="17.143" cy="58682.697355" cx="153182.400696"/>
     <circle stroke="null" id="svg_575" r="17.143" cy="58682.697355" cx="153182.400696"/>
     <circle stroke="null" id="svg_576" r="17.143" cy="58681.987355" cx="152958.584696"/>
     <circle stroke="null" id="svg_577" r="17.143" cy="58647.062355" cx="152982.546696"/>
     <circle stroke="null" id="svg_578" r="17.143" cy="58633.728355" cx="152965.450696"/>
     <circle stroke="null" id="svg_579" r="17.143" cy="58552.413355" cx="153120.687696"/>
     <circle stroke="null" id="svg_580" r="17.143" cy="59160.731355" cx="153063.872696"/>
     <circle stroke="null" id="svg_581" r="17.143" cy="59466.284355" cx="152945.988696"/>
     <circle stroke="null" id="svg_582" r="17.143" cy="59355.208355" cx="152968.215696"/>
     <circle stroke="null" id="svg_583" r="17.143" cy="59331.267355" cx="152964.483696"/>
     <circle stroke="null" id="svg_584" r="17.143" cy="59226.276355" cx="152987.111696"/>
     <circle stroke="null" id="svg_585" r="17.143" cy="59165.959355" cx="152957.746696"/>
     <circle stroke="null" id="svg_586" r="17.143" cy="58874.694355" cx="153009.995696"/>
     <circle stroke="null" id="svg_587" r="17.143" cy="58800.710355" cx="152957.793696"/>
     <circle stroke="null" id="svg_588" r="17.143" cy="58725.679355" cx="152969.782696"/>
     <circle stroke="null" id="svg_589" r="17.143" cy="58805.144355" cx="153143.217696"/>
     <circle stroke="null" id="svg_590" r="17.143" cy="59839.577355" cx="152985.505696"/>
     <circle stroke="null" id="svg_591" r="17.143" cy="59918.362355" cx="153058.622696"/>
     <circle stroke="null" id="svg_592" r="17.143" cy="59895.660355" cx="153023.120696"/>
     <circle stroke="null" id="svg_593" r="17.143" cy="59897.041355" cx="153012.727696"/>
     <circle stroke="null" id="svg_594" r="17.143" cy="59876.072355" cx="152977.396696"/>
     <circle stroke="null" id="svg_595" r="17.143" cy="58552.413355" cx="153120.687696"/>
     <circle stroke="null" id="svg_596" r="17.143" cy="58633.728355" cx="152965.450696"/>
     <circle stroke="null" id="svg_597" r="17.143" cy="58611.268355" cx="152949.358696"/>
     <circle stroke="null" id="svg_598" r="17.143" cy="58512.595355" cx="152979.735696"/>
     <circle stroke="null" id="svg_599" r="17.143" cy="58487.440355" cx="152972.770696"/>
     <circle stroke="null" id="svg_600" r="17.143" cy="58438.224355" cx="152966.663696"/>
     <circle stroke="null" id="svg_601" r="17.143" cy="59160.731355" cx="153063.872696"/>
     <circle stroke="null" id="svg_602" r="17.143" cy="59165.959355" cx="152957.746696"/>
     <circle stroke="null" id="svg_603" r="17.143" cy="59145.389355" cx="152958.025696"/>
     <circle stroke="null" id="svg_604" r="17.143" cy="59121.548355" cx="153046.239696"/>
     <circle stroke="null" id="svg_605" r="17.143" cy="59611.336355" cx="152990.403696"/>
     <circle stroke="null" id="svg_606" r="17.143" cy="59488.102355" cx="152945.097696"/>
     <circle stroke="null" id="svg_607" r="17.143" cy="59480.331355" cx="152945.362696"/>
     <circle stroke="null" id="svg_608" r="17.143" cy="59543.745355" cx="153057.994696"/>
     <circle stroke="null" id="svg_609" r="17.143" cy="59121.548355" cx="153046.239696"/>
     <circle stroke="null" id="svg_610" r="17.143" cy="59145.389355" cx="152958.025696"/>
     <circle stroke="null" id="svg_611" r="17.143" cy="59029.360355" cx="152961.076696"/>
     <circle stroke="null" id="svg_612" r="17.143" cy="59839.577355" cx="152985.505696"/>
     <circle stroke="null" id="svg_613" r="17.143" cy="59834.791355" cx="152955.952696"/>
     <circle stroke="null" id="svg_614" r="17.143" cy="59786.652355" cx="152957.763696"/>
     <circle stroke="null" id="svg_615" r="17.143" cy="59775.241355" cx="152958.889696"/>
     <circle stroke="null" id="svg_616" r="17.143" cy="59768.050355" cx="152965.511696"/>
     <circle stroke="null" id="svg_617" r="17.143" cy="59641.831355" cx="152943.274696"/>
     <circle stroke="null" id="svg_618" r="17.143" cy="59611.336355" cx="152990.403696"/>
     <circle stroke="null" id="svg_619" r="17.143" cy="58874.694355" cx="153009.995696"/>
     <circle stroke="null" id="svg_620" r="17.143" cy="58917.409355" cx="152992.560696"/>
     <circle stroke="null" id="svg_621" r="17.143" cy="58878.963355" cx="152966.238696"/>
     <circle stroke="null" id="svg_622" r="17.143" cy="58874.694355" cx="153009.995696"/>
     <circle stroke="null" id="svg_623" r="17.143" cy="58878.963355" cx="152966.238696"/>
     <circle stroke="null" id="svg_624" r="17.143" cy="58800.710355" cx="152957.793696"/>
     <circle stroke="null" id="svg_625" r="17.143" cy="59839.577355" cx="152985.505696"/>
     <circle stroke="null" id="svg_626" r="17.143" cy="59876.072355" cx="152977.396696"/>
     <circle stroke="null" id="svg_627" r="17.143" cy="59853.796355" cx="152961.741696"/>
     <circle stroke="null" id="svg_628" r="17.143" cy="59611.336355" cx="152990.403696"/>
     <circle stroke="null" id="svg_629" r="17.143" cy="59589.751355" cx="152962.016696"/>
     <circle stroke="null" id="svg_630" r="17.143" cy="59488.102355" cx="152945.097696"/>
     <circle stroke="null" id="svg_631" r="17.143" cy="59611.336355" cx="152990.403696"/>
     <circle stroke="null" id="svg_632" r="17.143" cy="59621.544355" cx="152945.159696"/>
     <circle stroke="null" id="svg_633" r="17.143" cy="59589.751355" cx="152962.016696"/>
     <circle stroke="null" id="svg_634" r="17.143" cy="59611.336355" cx="152990.403696"/>
     <circle stroke="null" id="svg_635" r="17.143" cy="59641.831355" cx="152943.274696"/>
     <circle stroke="null" id="svg_636" r="17.143" cy="59621.544355" cx="152945.159696"/>
     <circle stroke="null" id="svg_637" r="17.143" cy="59839.577355" cx="152985.505696"/>
     <circle stroke="null" id="svg_638" r="17.143" cy="59853.796355" cx="152961.741696"/>
     <circle stroke="null" id="svg_639" r="17.143" cy="59834.791355" cx="152955.952696"/>
     <circle stroke="null" id="svg_640" r="17.143" cy="58368.793355" cx="152734.762696"/>
     <circle stroke="null" id="svg_641" r="17.143" cy="58368.960355" cx="152735.232696"/>
     <circle stroke="null" id="svg_642" r="17.143" cy="59920.882355" cx="152712.861696"/>
     <circle stroke="null" id="svg_643" r="17.143" cy="59920.882355" cx="152685.170696"/>
     <circle stroke="null" id="svg_644" r="17.143" cy="58681.718355" cx="152795.468696"/>
     <circle stroke="null" id="svg_645" r="17.143" cy="58681.718355" cx="152795.468696"/>
     <circle stroke="null" id="svg_646" r="17.143" cy="58666.073355" cx="152825.334696"/>
     <circle stroke="null" id="svg_647" r="17.143" cy="59170.526355" cx="152786.651696"/>
     <circle stroke="null" id="svg_648" r="17.143" cy="59168.345355" cx="152830.940696"/>
     <circle stroke="null" id="svg_649" r="17.143" cy="59226.286355" cx="152801.706696"/>
     <circle stroke="null" id="svg_650" r="17.143" cy="59328.892355" cx="152825.991696"/>
     <circle stroke="null" id="svg_651" r="17.143" cy="58681.718355" cx="152795.468696"/>
     <circle stroke="null" id="svg_652" r="17.143" cy="58705.180355" cx="152820.259696"/>
     <circle stroke="null" id="svg_653" r="17.143" cy="58711.303355" cx="152816.342696"/>
     <circle stroke="null" id="svg_654" r="17.143" cy="58681.718355" cx="152795.468696"/>
     <circle stroke="null" id="svg_655" r="17.143" cy="58553.635355" cx="152833.745696"/>
     <circle stroke="null" id="svg_656" r="17.143" cy="58647.062355" cx="152806.271696"/>
     <circle stroke="null" id="svg_657" r="17.143" cy="58524.985355" cx="152751.387696"/>
     <circle stroke="null" id="svg_658" r="17.143" cy="58467.828355" cx="152820.994696"/>
     <circle stroke="null" id="svg_659" r="17.143" cy="58487.440355" cx="152816.038696"/>
     <circle stroke="null" id="svg_660" r="17.143" cy="58553.635355" cx="152833.745696"/>
     <circle stroke="null" id="svg_661" r="17.143" cy="58681.718355" cx="152795.468696"/>
     <circle stroke="null" id="svg_662" r="17.143" cy="59170.526355" cx="152786.651696"/>
     <circle stroke="null" id="svg_663" r="17.143" cy="59158.492355" cx="152831.179696"/>
     <circle stroke="null" id="svg_664" r="17.143" cy="59168.345355" cx="152830.940696"/>
     <circle stroke="null" id="svg_665" r="17.143" cy="59170.526355" cx="152786.651696"/>
     <circle stroke="null" id="svg_666" r="17.143" cy="59093.846355" cx="152830.186696"/>
     <circle stroke="null" id="svg_667" r="17.143" cy="59158.492355" cx="152831.179696"/>
     <circle stroke="null" id="svg_668" r="17.143" cy="59170.526355" cx="152786.651696"/>
     <circle stroke="null" id="svg_669" r="17.143" cy="59328.892355" cx="152825.991696"/>
     <circle stroke="null" id="svg_670" r="17.143" cy="59355.208355" cx="152820.593696"/>
     <circle stroke="null" id="svg_671" r="17.143" cy="59474.664355" cx="152843.193696"/>
     <circle stroke="null" id="svg_672" r="17.143" cy="59449.706355" cx="152699.469696"/>
     <circle stroke="null" id="svg_673" r="17.143" cy="59794.517355" cx="152628.939696"/>
     <circle stroke="null" id="svg_674" r="17.143" cy="59654.533355" cx="152845.278696"/>
     <circle stroke="null" id="svg_675" r="17.143" cy="59768.050355" cx="152823.296696"/>
     <circle stroke="null" id="svg_676" r="17.143" cy="59775.250355" cx="152829.928696"/>
     <circle stroke="null" id="svg_677" r="17.143" cy="59786.652355" cx="152831.054696"/>
     <circle stroke="null" id="svg_678" r="17.143" cy="59827.705355" cx="152833.841696"/>
     <circle stroke="null" id="svg_679" r="17.143" cy="58898.204355" cx="152690.653696"/>
     <circle stroke="null" id="svg_680" r="17.143" cy="58885.594355" cx="152819.902696"/>
     <circle stroke="null" id="svg_681" r="17.143" cy="58921.725355" cx="152786.562696"/>
     <circle stroke="null" id="svg_682" r="17.143" cy="58953.082355" cx="152801.354696"/>
     <circle stroke="null" id="svg_683" r="17.143" cy="58978.184355" cx="152811.598696"/>
     <circle stroke="null" id="svg_684" r="17.143" cy="58681.718355" cx="152795.468696"/>
     <circle stroke="null" id="svg_685" r="17.143" cy="58711.303355" cx="152816.342696"/>
     <circle stroke="null" id="svg_686" r="17.143" cy="58763.955355" cx="152828.557696"/>
     <circle stroke="null" id="svg_687" r="17.143" cy="58843.085355" cx="152830.379696"/>
     <circle stroke="null" id="svg_688" r="17.143" cy="58885.594355" cx="152819.902696"/>
     <circle stroke="null" id="svg_689" r="17.143" cy="58898.204355" cx="152690.653696"/>
     <circle stroke="null" id="svg_690" r="17.143" cy="59449.706355" cx="152699.469696"/>
     <circle stroke="null" id="svg_691" r="17.143" cy="59474.664355" cx="152843.193696"/>
     <circle stroke="null" id="svg_692" r="17.143" cy="59549.557355" cx="152830.789696"/>
     <circle stroke="null" id="svg_693" r="17.143" cy="59449.706355" cx="152699.469696"/>
     <circle stroke="null" id="svg_694" r="17.143" cy="59549.557355" cx="152830.789696"/>
     <circle stroke="null" id="svg_695" r="17.143" cy="59572.948355" cx="152821.602696"/>
     <circle stroke="null" id="svg_696" r="17.143" cy="59626.568355" cx="152844.522696"/>
     <circle stroke="null" id="svg_697" r="17.143" cy="59683.825355" cx="152590.736696"/>
     <circle stroke="null" id="svg_698" r="17.143" cy="59683.825355" cx="152590.736696"/>
     <circle stroke="null" id="svg_699" r="17.143" cy="59626.568355" cx="152844.522696"/>
     <circle stroke="null" id="svg_700" r="17.143" cy="59654.533355" cx="152845.278696"/>
     <circle stroke="null" id="svg_701" r="17.143" cy="59794.517355" cx="152628.939696"/>
     <circle stroke="null" id="svg_702" r="17.143" cy="59920.882355" cx="152712.861696"/>
     <circle stroke="null" id="svg_703" r="17.143" cy="59917.006355" cx="152658.103696"/>
     <circle stroke="null" id="svg_704" r="17.143" cy="59794.517355" cx="152628.939696"/>
     <circle stroke="null" id="svg_705" r="17.143" cy="59827.705355" cx="152833.841696"/>
     <circle stroke="null" id="svg_706" r="17.143" cy="59897.041355" cx="152776.081696"/>
     <circle stroke="null" id="svg_707" r="17.143" cy="59895.660355" cx="152765.687696"/>
     <circle stroke="null" id="svg_708" r="17.143" cy="59091.181355" cx="152686.734696"/>
     <circle stroke="null" id="svg_709" r="17.143" cy="59035.962355" cx="152828.511696"/>
     <circle stroke="null" id="svg_710" r="17.143" cy="59093.846355" cx="152830.186696"/>
     <circle stroke="null" id="svg_711" r="17.143" cy="59170.526355" cx="152786.651696"/>
     <circle stroke="null" id="svg_712" r="17.143" cy="58677.799355" cx="152726.897696"/>
     <circle stroke="null" id="svg_713" r="17.143" cy="58681.718355" cx="152795.468696"/>
     <circle stroke="null" id="svg_714" r="17.143" cy="58898.204355" cx="152690.653696"/>
     <circle stroke="null" id="svg_715" r="17.143" cy="58524.985355" cx="152751.387696"/>
     <circle stroke="null" id="svg_716" r="17.143" cy="58381.661355" cx="152796.873696"/>
     <circle stroke="null" id="svg_717" r="17.143" cy="58467.828355" cx="152820.994696"/>
     <circle stroke="null" id="svg_718" r="17.143" cy="58898.204355" cx="152690.653696"/>
     <circle stroke="null" id="svg_719" r="17.143" cy="58978.184355" cx="152811.598696"/>
     <circle stroke="null" id="svg_720" r="17.143" cy="59035.962355" cx="152828.511696"/>
     <circle stroke="null" id="svg_721" r="17.143" cy="59091.181355" cx="152686.734696"/>
     <circle stroke="null" id="svg_722" r="17.143" cy="59156.812355" cx="152697.510696"/>
     <circle stroke="null" id="svg_723" r="17.143" cy="59170.526355" cx="152786.651696"/>
     <circle stroke="null" id="svg_724" r="17.143" cy="59449.706355" cx="152699.469696"/>
     <circle stroke="null" id="svg_725" r="17.143" cy="58677.799355" cx="152726.897696"/>
     <circle stroke="null" id="svg_726" r="17.143" cy="58524.985355" cx="152751.387696"/>
     <circle stroke="null" id="svg_727" r="17.143" cy="58681.718355" cx="152795.468696"/>
     <circle stroke="null" id="svg_728" r="17.143" cy="59156.812355" cx="152697.510696"/>
     <circle stroke="null" id="svg_729" r="17.143" cy="59091.181355" cx="152686.734696"/>
     <circle stroke="null" id="svg_730" r="17.143" cy="59170.526355" cx="152786.651696"/>
     <circle stroke="null" id="svg_731" r="17.143" cy="58524.985355" cx="152751.387696"/>
     <circle stroke="null" id="svg_732" r="17.143" cy="58355.365355" cx="152718.048696"/>
     <circle stroke="null" id="svg_733" r="17.143" cy="58358.047355" cx="152753.501696"/>
     <circle stroke="null" id="svg_734" r="17.143" cy="58381.661355" cx="152796.873696"/>
     <circle stroke="null" id="svg_735" r="17.143" cy="58368.960355" cx="152735.232696"/>
     <circle stroke="null" id="svg_736" r="17.143" cy="58368.793355" cx="152734.762696"/>
     <circle stroke="null" id="svg_737" r="17.143" cy="58416.252355" cx="152429.106696"/>
     <circle stroke="null" id="svg_738" r="17.143" cy="58396.387355" cx="152459.292696"/>
     <circle stroke="null" id="svg_739" r="17.143" cy="58401.874355" cx="152532.509696"/>
     <circle stroke="null" id="svg_740" r="17.143" cy="58417.694355" cx="152567.548696"/>
     <circle stroke="null" id="svg_741" r="17.143" cy="58396.270355" cx="152594.134696"/>
     <circle stroke="null" id="svg_742" r="17.143" cy="58375.611355" cx="152653.898696"/>
     <circle stroke="null" id="svg_743" r="17.143" cy="58355.365355" cx="152718.048696"/>
     <circle stroke="null" id="svg_744" r="17.143" cy="58524.985355" cx="152751.387696"/>
     <circle stroke="null" id="svg_745" r="17.143" cy="59156.812355" cx="152697.510696"/>
     <circle stroke="null" id="svg_746" r="17.143" cy="59449.706355" cx="152699.469696"/>
     <circle stroke="null" id="svg_747" r="17.143" cy="59170.526355" cx="152474.166696"/>
     <circle stroke="null" id="svg_748" r="17.143" cy="59570.194355" cx="152496.697696"/>
     <circle stroke="null" id="svg_749" r="17.143" cy="59449.706355" cx="152699.469696"/>
     <circle stroke="null" id="svg_750" r="17.143" cy="59683.825355" cx="152590.736696"/>
     <circle stroke="null" id="svg_751" r="17.143" cy="58677.799355" cx="152726.897696"/>
     <circle stroke="null" id="svg_752" r="17.143" cy="58898.204355" cx="152690.653696"/>
     <circle stroke="null" id="svg_753" r="17.143" cy="58880.572355" cx="152560.369696"/>
     <circle stroke="null" id="svg_754" r="17.143" cy="58677.799355" cx="152726.897696"/>
     <circle stroke="null" id="svg_755" r="17.143" cy="58619.025355" cx="152426.167696"/>
     <circle stroke="null" id="svg_756" r="17.143" cy="58524.985355" cx="152751.387696"/>
     <circle stroke="null" id="svg_757" r="17.143" cy="58524.985355" cx="152751.387696"/>
     <circle stroke="null" id="svg_758" r="17.143" cy="58619.025355" cx="152426.167696"/>
     <circle stroke="null" id="svg_759" r="17.143" cy="58416.252355" cx="152429.106696"/>
     <circle stroke="null" id="svg_760" r="17.143" cy="58880.572355" cx="152560.369696"/>
     <circle stroke="null" id="svg_761" r="17.143" cy="58898.204355" cx="152690.653696"/>
     <circle stroke="null" id="svg_762" r="17.143" cy="59091.181355" cx="152686.734696"/>
     <circle stroke="null" id="svg_763" r="17.143" cy="59170.526355" cx="152474.166696"/>
     <circle stroke="null" id="svg_764" r="17.143" cy="59449.706355" cx="152699.469696"/>
     <circle stroke="null" id="svg_765" r="17.143" cy="59452.645355" cx="152442.820696"/>
     <circle stroke="null" id="svg_766" r="17.143" cy="58880.572355" cx="152560.369696"/>
     <circle stroke="null" id="svg_767" r="17.143" cy="58619.025355" cx="152426.167696"/>
     <circle stroke="null" id="svg_768" r="17.143" cy="58677.799355" cx="152726.897696"/>
     <circle stroke="null" id="svg_769" r="17.143" cy="58880.572355" cx="152560.369696"/>
     <circle stroke="null" id="svg_770" r="17.143" cy="59091.181355" cx="152686.734696"/>
     <circle stroke="null" id="svg_771" r="17.143" cy="59099.997355" cx="152419.310696"/>
     <circle stroke="null" id="svg_772" r="17.143" cy="58416.252355" cx="152429.106696"/>
     <circle stroke="null" id="svg_773" r="17.143" cy="58410.666355" cx="152428.286696"/>
     <circle stroke="null" id="svg_774" r="17.143" cy="58396.387355" cx="152459.292696"/>
     <circle stroke="null" id="svg_775" r="17.143" cy="59452.645355" cx="152442.820696"/>
     <circle stroke="null" id="svg_776" r="17.143" cy="59449.706355" cx="152699.469696"/>
     <circle stroke="null" id="svg_777" r="17.143" cy="59570.194355" cx="152496.697696"/>
     <circle stroke="null" id="svg_778" r="17.143" cy="59170.526355" cx="152474.166696"/>
     <circle stroke="null" id="svg_779" r="17.143" cy="59091.181355" cx="152686.734696"/>
     <circle stroke="null" id="svg_780" r="17.143" cy="59156.812355" cx="152697.510696"/>
     <circle stroke="null" id="svg_781" r="17.143" cy="59794.517355" cx="152628.939696"/>
     <circle stroke="null" id="svg_782" r="17.143" cy="59917.006355" cx="152658.103696"/>
     <circle stroke="null" id="svg_783" r="17.143" cy="59892.271355" cx="152599.874696"/>
     <circle stroke="null" id="svg_784" r="17.143" cy="59845.154355" cx="152550.214696"/>
     <circle stroke="null" id="svg_785" r="17.143" cy="59099.997355" cx="152419.310696"/>
     <circle stroke="null" id="svg_786" r="17.143" cy="59091.181355" cx="152686.734696"/>
     <circle stroke="null" id="svg_787" r="17.143" cy="59170.526355" cx="152474.166696"/>
     <circle stroke="null" id="svg_788" r="17.143" cy="59794.517355" cx="152628.939696"/>
     <circle stroke="null" id="svg_789" r="17.143" cy="59845.154355" cx="152550.214696"/>
     <circle stroke="null" id="svg_790" r="17.143" cy="59828.917355" cx="152482.072696"/>
     <circle stroke="null" id="svg_791" r="17.143" cy="59712.232355" cx="152543.716696"/>
     <circle stroke="null" id="svg_792" r="17.143" cy="59683.825355" cx="152590.736696"/>
     <circle stroke="null" id="svg_793" r="17.143" cy="59794.517355" cx="152628.939696"/>
     <circle stroke="null" id="svg_794" r="17.143" cy="59712.232355" cx="152543.716696"/>
     <circle stroke="null" id="svg_795" r="17.143" cy="58880.572355" cx="152560.369696"/>
     <circle stroke="null" id="svg_796" r="17.143" cy="58679.758355" cx="152343.883696"/>
     <circle stroke="null" id="svg_797" r="17.143" cy="58619.025355" cx="152426.167696"/>
     <circle stroke="null" id="svg_798" r="17.143" cy="59099.997355" cx="152419.310696"/>
     <circle stroke="null" id="svg_799" r="17.143" cy="58982.448355" cx="152325.271696"/>
     <circle stroke="null" id="svg_800" r="17.143" cy="58880.572355" cx="152560.369696"/>
     <circle stroke="null" id="svg_801" r="17.143" cy="59683.825355" cx="152590.736696"/>
     <circle stroke="null" id="svg_802" r="17.143" cy="59712.232355" cx="152543.716696"/>
     <circle stroke="null" id="svg_803" r="17.143" cy="59570.194355" cx="152496.697696"/>
     <circle stroke="null" id="svg_804" r="17.143" cy="58619.025355" cx="152426.167696"/>
     <circle stroke="null" id="svg_805" r="17.143" cy="58548.566355" cx="152376.230696"/>
     <circle stroke="null" id="svg_806" r="17.143" cy="58538.397355" cx="152381.595696"/>
     <circle stroke="null" id="svg_807" r="17.143" cy="58488.564355" cx="152376.263696"/>
     <circle stroke="null" id="svg_808" r="17.143" cy="58416.252355" cx="152429.106696"/>
     <circle stroke="null" id="svg_809" r="17.143" cy="59452.645355" cx="152442.820696"/>
     <circle stroke="null" id="svg_810" r="17.143" cy="59295.912355" cx="152297.842696"/>
     <circle stroke="null" id="svg_811" r="17.143" cy="59170.526355" cx="152474.166696"/>
     <circle stroke="null" id="svg_812" r="17.143" cy="58880.572355" cx="152560.369696"/>
     <circle stroke="null" id="svg_813" r="17.143" cy="58808.083355" cx="152276.292696"/>
     <circle stroke="null" id="svg_814" r="17.143" cy="58679.758355" cx="152343.883696"/>
     <circle stroke="null" id="svg_815" r="17.143" cy="58880.572355" cx="152560.369696"/>
     <circle stroke="null" id="svg_816" r="17.143" cy="58982.448355" cx="152325.271696"/>
     <circle stroke="null" id="svg_817" r="17.143" cy="58808.083355" cx="152276.292696"/>
     <circle stroke="null" id="svg_818" r="17.143" cy="59712.232355" cx="152543.716696"/>
     <circle stroke="null" id="svg_819" r="17.143" cy="59828.917355" cx="152482.072696"/>
     <circle stroke="null" id="svg_820" r="17.143" cy="59815.770355" cx="152380.372696"/>
     <circle stroke="null" id="svg_821" r="17.143" cy="59712.232355" cx="152543.716696"/>
     <circle stroke="null" id="svg_822" r="17.143" cy="59815.770355" cx="152380.372696"/>
     <circle stroke="null" id="svg_823" r="17.143" cy="59796.566355" cx="152348.975696"/>
     <circle stroke="null" id="svg_824" r="17.143" cy="59746.705355" cx="152322.458696"/>
     <circle stroke="null" id="svg_825" r="17.143" cy="59693.212355" cx="152307.040696"/>
     <circle stroke="null" id="svg_826" r="17.143" cy="59641.703355" cx="152310.577696"/>
     <circle stroke="null" id="svg_827" r="17.143" cy="59570.194355" cx="152496.697696"/>
     <circle stroke="null" id="svg_828" r="17.143" cy="59712.232355" cx="152543.716696"/>
     <circle stroke="null" id="svg_829" r="17.143" cy="59641.703355" cx="152310.577696"/>
     <circle stroke="null" id="svg_830" r="17.143" cy="59570.194355" cx="152496.697696"/>
     <circle stroke="null" id="svg_831" r="17.143" cy="59460.481355" cx="152322.332696"/>
     <circle stroke="null" id="svg_832" r="17.143" cy="59452.645355" cx="152442.820696"/>
     <circle stroke="null" id="svg_833" r="17.143" cy="59570.194355" cx="152496.697696"/>
     <circle stroke="null" id="svg_834" r="17.143" cy="59641.703355" cx="152310.577696"/>
     <circle stroke="null" id="svg_835" r="17.143" cy="59460.481355" cx="152322.332696"/>
     <circle stroke="null" id="svg_836" r="17.143" cy="58416.252355" cx="152429.106696"/>
     <circle stroke="null" id="svg_837" r="17.143" cy="58412.925355" cx="152425.046696"/>
     <circle stroke="null" id="svg_838" r="17.143" cy="58410.666355" cx="152428.286696"/>
     <circle stroke="null" id="svg_839" r="17.143" cy="59452.645355" cx="152442.820696"/>
     <circle stroke="null" id="svg_840" r="17.143" cy="59460.481355" cx="152322.332696"/>
     <circle stroke="null" id="svg_841" r="17.143" cy="59295.912355" cx="152297.842696"/>
     <circle stroke="null" id="svg_842" r="17.143" cy="59170.526355" cx="152474.166696"/>
     <circle stroke="null" id="svg_843" r="17.143" cy="59295.912355" cx="152297.842696"/>
     <circle stroke="null" id="svg_844" r="17.143" cy="59099.997355" cx="152419.310696"/>
     <circle stroke="null" id="svg_845" r="17.143" cy="58416.252355" cx="152429.106696"/>
     <circle stroke="null" id="svg_846" r="17.143" cy="58488.564355" cx="152376.263696"/>
     <circle stroke="null" id="svg_847" r="17.143" cy="58412.925355" cx="152425.046696"/>
     <circle stroke="null" id="svg_848" r="17.143" cy="58679.758355" cx="152343.883696"/>
     <circle stroke="null" id="svg_849" r="17.143" cy="58552.001355" cx="152352.400696"/>
     <circle stroke="null" id="svg_850" r="17.143" cy="58548.566355" cx="152376.230696"/>
     <circle stroke="null" id="svg_851" r="17.143" cy="58619.025355" cx="152426.167696"/>
     <circle stroke="null" id="svg_852" r="17.143" cy="59099.997355" cx="152419.310696"/>
     <circle stroke="null" id="svg_853" r="17.143" cy="59295.912355" cx="152297.842696"/>
     <circle stroke="null" id="svg_854" r="17.143" cy="58982.448355" cx="152325.271696"/>
     <circle stroke="null" id="svg_855" r="17.143" cy="58982.448355" cx="152325.271696"/>
     <circle stroke="null" id="svg_856" r="17.143" cy="59295.912355" cx="152297.842696"/>
     <circle stroke="null" id="svg_857" r="17.143" cy="59277.300355" cx="152147.967696"/>
     <circle stroke="null" id="svg_858" r="17.143" cy="59641.703355" cx="152310.577696"/>
     <circle stroke="null" id="svg_859" r="17.143" cy="59693.212355" cx="152307.040696"/>
     <circle stroke="null" id="svg_860" r="17.143" cy="59681.647355" cx="152275.299696"/>
     <circle stroke="null" id="svg_861" r="17.143" cy="59641.703355" cx="152310.577696"/>
     <circle stroke="null" id="svg_862" r="17.143" cy="59564.410355" cx="152186.387696"/>
     <circle stroke="null" id="svg_863" r="17.143" cy="59546.437355" cx="152183.549696"/>
     <circle stroke="null" id="svg_864" r="17.143" cy="59460.481355" cx="152322.332696"/>
     <circle stroke="null" id="svg_865" r="17.143" cy="59277.300355" cx="152147.967696"/>
     <circle stroke="null" id="svg_866" r="17.143" cy="59230.929355" cx="152135.086696"/>
     <circle stroke="null" id="svg_867" r="17.143" cy="59197.466355" cx="152157.468696"/>
     <circle stroke="null" id="svg_868" r="17.143" cy="59134.019355" cx="152122.458696"/>
     <circle stroke="null" id="svg_869" r="17.143" cy="59045.691355" cx="152163.688696"/>
     <circle stroke="null" id="svg_870" r="17.143" cy="59040.352355" cx="152172.847696"/>
     <circle stroke="null" id="svg_871" r="17.143" cy="59001.112355" cx="152171.143696"/>
     <circle stroke="null" id="svg_872" r="17.143" cy="58982.448355" cx="152325.271696"/>
     <circle stroke="null" id="svg_873" r="17.143" cy="58982.448355" cx="152325.271696"/>
     <circle stroke="null" id="svg_874" r="17.143" cy="58908.266355" cx="152209.967696"/>
     <circle stroke="null" id="svg_875" r="17.143" cy="58875.687355" cx="152203.185696"/>
     <circle stroke="null" id="svg_876" r="17.143" cy="58808.083355" cx="152276.292696"/>
     <circle stroke="null" id="svg_877" r="17.143" cy="58679.758355" cx="152343.883696"/>
     <circle stroke="null" id="svg_878" r="17.143" cy="58666.923355" cx="152294.327696"/>
     <circle stroke="null" id="svg_879" r="17.143" cy="58552.001355" cx="152352.400696"/>
     <circle stroke="null" id="svg_880" r="17.143" cy="59460.481355" cx="152322.332696"/>
     <circle stroke="null" id="svg_881" r="17.143" cy="59430.979355" cx="152189.913696"/>
     <circle stroke="null" id="svg_882" r="17.143" cy="59386.895355" cx="152175.561696"/>
     <circle stroke="null" id="svg_883" r="17.143" cy="59295.912355" cx="152297.842696"/>
     <circle stroke="null" id="svg_884" r="17.143" cy="58808.083355" cx="152276.292696"/>
     <circle stroke="null" id="svg_885" r="17.143" cy="58758.867355" cx="152220.983696"/>
     <circle stroke="null" id="svg_886" r="17.143" cy="58666.923355" cx="152294.327696"/>
     <circle stroke="null" id="svg_887" r="17.143" cy="58679.758355" cx="152343.883696"/>
     <circle stroke="null" id="svg_888" r="17.143" cy="58982.448355" cx="152325.271696"/>
     <circle stroke="null" id="svg_889" r="17.143" cy="59001.112355" cx="152171.143696"/>
     <circle stroke="null" id="svg_890" r="17.143" cy="58935.802355" cx="152202.734696"/>
     <circle stroke="null" id="svg_891" r="17.143" cy="58908.266355" cx="152209.967696"/>
     <circle stroke="null" id="svg_892" r="17.143" cy="59641.703355" cx="152310.577696"/>
     <circle stroke="null" id="svg_893" r="17.143" cy="59681.647355" cx="152275.299696"/>
     <circle stroke="null" id="svg_894" r="17.143" cy="59651.148355" cx="152235.246696"/>
     <circle stroke="null" id="svg_895" r="17.143" cy="59564.410355" cx="152186.387696"/>
     <circle stroke="null" id="svg_896" r="17.143" cy="59460.481355" cx="152322.332696"/>
     <circle stroke="null" id="svg_897" r="17.143" cy="59546.437355" cx="152183.549696"/>
     <circle stroke="null" id="svg_898" r="17.143" cy="59491.633355" cx="152189.657696"/>
     <circle stroke="null" id="svg_899" r="17.143" cy="59462.716355" cx="152196.847696"/>
     <circle stroke="null" id="svg_900" r="17.143" cy="59430.979355" cx="152189.913696"/>
     <circle stroke="null" id="svg_901" r="17.143" cy="59295.912355" cx="152297.842696"/>
     <circle stroke="null" id="svg_902" r="17.143" cy="59386.895355" cx="152175.561696"/>
     <circle stroke="null" id="svg_903" r="17.143" cy="59351.240355" cx="152140.265696"/>
     <circle stroke="null" id="svg_904" r="17.143" cy="59277.300355" cx="152147.967696"/>
     <circle stroke="null" id="svg_905" r="17.143" cy="58808.083355" cx="152276.292696"/>
     <circle stroke="null" id="svg_906" r="17.143" cy="58875.687355" cx="152203.185696"/>
     <circle stroke="null" id="svg_907" r="17.143" cy="58758.867355" cx="152220.983696"/>
     <circle stroke="null" id="svg_908" r="17.143" cy="59277.300355" cx="152167.559696"/>
     <circle stroke="null" id="svg_909" r="17.143" cy="59273.800355" cx="152140.258696"/>
     <circle stroke="null" id="svg_910" r="17.143" cy="59230.929355" cx="152154.678696"/>
     <circle stroke="null" id="svg_911" r="17.143" cy="59277.300355" cx="152167.559696"/>
     <circle stroke="null" id="svg_912" r="17.143" cy="59351.240355" cx="152159.857696"/>
     <circle stroke="null" id="svg_913" r="17.143" cy="59289.770355" cx="152139.186696"/>
     <circle stroke="null" id="svg_914" r="17.143" cy="59277.300355" cx="152167.559696"/>
     <circle stroke="null" id="svg_915" r="17.143" cy="59289.770355" cx="152139.186696"/>
     <circle stroke="null" id="svg_916" r="17.143" cy="59273.800355" cx="152140.258696"/>
     <path stroke="null" id="svg_917" d="m153255.869696,59254.770355"/>
    </g>
   </g>
  </g>
 </g>
</svg>